<svg xmlns="http://www.w3.org/2000/svg" width="1800" height="760" viewBox="0 0 1800 760">
<defs><marker id="arrow" markerWidth="10" markerHeight="10" refX="8" refY="3" orient="auto" markerUnits="strokeWidth"><path d="M0,0 L0,6 L9,3 z" fill="#A80036"/></marker></defs>
<rect width="100%" height="100%" fill="#FFFFFF"/>
<text x="900.0" y="42" text-anchor="middle" font-family="Arial" font-size="24" font-weight="bold" fill="#111827">Whitebox order-service — Architecture hexagonale</text>
<polygon points="690,92 1060,92 1230,380 1060,668 690,668 520,380" fill="#F3F4F6" stroke="#374151" stroke-width="3"/>
<polygon points="745,155 1005,155 1135,380 1005,605 745,605 615,380" fill="#FAF8EF" stroke="#374151" stroke-width="3"/>
<polygon points="825,285 925,285 990,380 925,475 825,475 760,380" fill="#FEF3C7" stroke="#B91C1C" stroke-width="3"/>
<rect x="200" y="108" width="170" height="38" rx="6" fill="#FEF3C7" stroke="#111827" stroke-width="1.4"/>
<text x="285.0" y="132" text-anchor="middle" font-family="Arial" font-size="13" font-weight="bold" fill="#111827">Interface Layer</text>
<rect x="805" y="108" width="175" height="38" rx="6" fill="#DBEAFE" stroke="#2563EB" stroke-width="1.4"/>
<text x="892.5" y="132" text-anchor="middle" font-family="Arial" font-size="13" font-weight="bold" fill="#111827">Business Layer</text>
<rect x="1110" y="108" width="200" height="38" rx="6" fill="#FECACA" stroke="#B91C1C" stroke-width="1.4"/>
<text x="1210.0" y="132" text-anchor="middle" font-family="Arial" font-size="13" font-weight="bold" fill="#111827">Infrastructure Layer</text>
<text x="620" y="335" transform="rotate(-62 620 335)" font-family="Arial" font-size="22" fill="#111827">Interface Adapter</text>
<text x="700" y="350" transform="rotate(-62 700 350)" font-family="Arial" font-size="22" fill="#111827">Services</text>
<text x="1055" y="335" transform="rotate(62 1055 335)" font-family="Arial" font-size="22" fill="#111827">Repositories</text>
<text x="1160" y="350" transform="rotate(62 1160 350)" font-family="Arial" font-size="22" fill="#111827">Data Sources</text>
<text x="875" y="348" text-anchor="middle" font-family="Arial" font-size="24" font-weight="bold" fill="#111827">Business Model</text>
<text x="875" y="380" text-anchor="middle" font-family="Arial" font-size="15" font-weight="bold" fill="#111827">Order</text>
<text x="875" y="400" text-anchor="middle" font-family="Arial" font-size="15" font-weight="bold" fill="#111827">OrderItem</text>
<text x="875" y="420" text-anchor="middle" font-family="Arial" font-size="15" font-weight="bold" fill="#111827">OrderStatus</text>
<text x="875" y="440" text-anchor="middle" font-family="Arial" font-size="15" font-weight="bold" fill="#111827">IdempotencyKey</text>
<text x="875" y="500" text-anchor="middle" font-family="Arial" font-size="14" font-weight="normal" fill="#111827">Dependencies go inwards</text>
<rect x="25" y="270" width="150" height="78" rx="6" fill="#FFF7ED" stroke="#F59E0B" stroke-width="1.4"/>
<text x="100.0" y="294" text-anchor="middle" font-family="Arial" font-size="13" font-weight="bold" fill="#111827">API Gateway</text>
<text x="100.0" y="315" text-anchor="middle" font-family="Arial" font-size="12" font-weight="normal" fill="#111827">REST client</text>
<line x1="175" y1="309" x2="225" y2="309" stroke="#A80036" stroke-width="1.1" marker-end="url(#arrow)"/>
<rect x="25" y="485" width="150" height="78" rx="6" fill="#FFF7ED" stroke="#F59E0B" stroke-width="1.4"/>
<text x="100.0" y="509" text-anchor="middle" font-family="Arial" font-size="13" font-weight="bold" fill="#111827">Activation request</text>
<text x="100.0" y="530" text-anchor="middle" font-family="Arial" font-size="12" font-weight="normal" fill="#111827">line/MSISDN</text>
<line x1="175" y1="524" x2="225" y2="524" stroke="#A80036" stroke-width="1.1" marker-end="url(#arrow)"/>
<rect x="235" y="238" width="175" height="72" rx="6" fill="#DBEAFE" stroke="#2563EB" stroke-width="1.4"/>
<text x="322.5" y="262" text-anchor="middle" font-family="Arial" font-size="13" font-weight="bold" fill="#111827">OrderController</text>
<text x="322.5" y="283" text-anchor="middle" font-family="Arial" font-size="12" font-weight="normal" fill="#111827">/v1/orders/*</text>
<line x1="410" y1="274" x2="455" y2="274" stroke="#A80036" stroke-width="1.1" marker-end="url(#arrow)"/>
<rect x="235" y="478" width="175" height="72" rx="6" fill="#DBEAFE" stroke="#2563EB" stroke-width="1.4"/>
<text x="322.5" y="502" text-anchor="middle" font-family="Arial" font-size="13" font-weight="bold" fill="#111827">ActivationController</text>
<text x="322.5" y="523" text-anchor="middle" font-family="Arial" font-size="12" font-weight="normal" fill="#111827">activate line</text>
<line x1="410" y1="514" x2="455" y2="514" stroke="#A80036" stroke-width="1.1" marker-end="url(#arrow)"/>
<rect x="455" y="195" width="150" height="62" rx="6" fill="#DBEAFE" stroke="#2563EB" stroke-width="1.4"/>
<text x="530.0" y="219" text-anchor="middle" font-family="Arial" font-size="13" font-weight="bold" fill="#111827">PlaceOrder</text>
<line x1="605" y1="226" x2="745" y2="365" stroke="#A80036" stroke-width="1.1" marker-end="url(#arrow)"/>
<rect x="455" y="315" width="150" height="62" rx="6" fill="#DBEAFE" stroke="#2563EB" stroke-width="1.4"/>
<text x="530.0" y="339" text-anchor="middle" font-family="Arial" font-size="13" font-weight="bold" fill="#111827">ActivateLine</text>
<line x1="605" y1="346" x2="745" y2="365" stroke="#A80036" stroke-width="1.1" marker-end="url(#arrow)"/>
<rect x="455" y="435" width="150" height="62" rx="6" fill="#DBEAFE" stroke="#2563EB" stroke-width="1.4"/>
<text x="530.0" y="459" text-anchor="middle" font-family="Arial" font-size="13" font-weight="bold" fill="#111827">GetOrder</text>
<line x1="605" y1="466" x2="745" y2="420" stroke="#A80036" stroke-width="1.1" marker-end="url(#arrow)"/>
<rect x="1245" y="205" width="165" height="62" rx="6" fill="#F8FAFC" stroke="#64748B" stroke-width="1.4"/>
<text x="1327.5" y="229" text-anchor="middle" font-family="Arial" font-size="13" font-weight="bold" fill="#111827">OrderRepository</text>
<line x1="1005" y1="365" x2="1245" y2="236" stroke="#A80036" stroke-width="1.1" marker-end="url(#arrow)"/>
<rect x="1245" y="325" width="165" height="62" rx="6" fill="#F8FAFC" stroke="#64748B" stroke-width="1.4"/>
<text x="1327.5" y="349" text-anchor="middle" font-family="Arial" font-size="13" font-weight="bold" fill="#111827">CatalogPort</text>
<line x1="1005" y1="365" x2="1245" y2="356" stroke="#A80036" stroke-width="1.1" marker-end="url(#arrow)"/>
<rect x="1245" y="445" width="165" height="62" rx="6" fill="#F8FAFC" stroke="#64748B" stroke-width="1.4"/>
<text x="1327.5" y="469" text-anchor="middle" font-family="Arial" font-size="13" font-weight="bold" fill="#111827">BillingPort</text>
<line x1="1005" y1="420" x2="1245" y2="476" stroke="#A80036" stroke-width="1.1" marker-end="url(#arrow)"/>
<rect x="1430" y="190" width="170" height="70" rx="6" fill="#DBEAFE" stroke="#2563EB" stroke-width="1.4"/>
<text x="1515.0" y="214" text-anchor="middle" font-family="Arial" font-size="13" font-weight="bold" fill="#111827">PostgreSQL Adapter</text>
<text x="1515.0" y="235" text-anchor="middle" font-family="Arial" font-size="12" font-weight="normal" fill="#111827">orders</text>
<line x1="1410" y1="225" x2="1430" y2="225" stroke="#A80036" stroke-width="1.1" marker-end="url(#arrow)"/>
<line x1="1600" y1="225" x2="1640" y2="225" stroke="#A80036" stroke-width="1.1" marker-end="url(#arrow)"/>
<rect x="1430" y="305" width="170" height="70" rx="6" fill="#DBEAFE" stroke="#2563EB" stroke-width="1.4"/>
<text x="1515.0" y="329" text-anchor="middle" font-family="Arial" font-size="13" font-weight="bold" fill="#111827">CatalogClient</text>
<text x="1515.0" y="350" text-anchor="middle" font-family="Arial" font-size="12" font-weight="normal" fill="#111827">price/offer</text>
<line x1="1410" y1="340" x2="1430" y2="340" stroke="#A80036" stroke-width="1.1" marker-end="url(#arrow)"/>
<line x1="1600" y1="340" x2="1640" y2="340" stroke="#A80036" stroke-width="1.1" marker-end="url(#arrow)"/>
<rect x="1430" y="420" width="170" height="70" rx="6" fill="#DBEAFE" stroke="#2563EB" stroke-width="1.4"/>
<text x="1515.0" y="444" text-anchor="middle" font-family="Arial" font-size="13" font-weight="bold" fill="#111827">BillingClient</text>
<text x="1515.0" y="465" text-anchor="middle" font-family="Arial" font-size="12" font-weight="normal" fill="#111827">facturable</text>
<line x1="1410" y1="455" x2="1430" y2="455" stroke="#A80036" stroke-width="1.1" marker-end="url(#arrow)"/>
<line x1="1600" y1="455" x2="1640" y2="455" stroke="#A80036" stroke-width="1.1" marker-end="url(#arrow)"/>
<rect x="1430" y="535" width="170" height="70" rx="6" fill="#DBEAFE" stroke="#2563EB" stroke-width="1.4"/>
<text x="1515.0" y="559" text-anchor="middle" font-family="Arial" font-size="13" font-weight="bold" fill="#111827">HLR/HSS Adapter</text>
<text x="1515.0" y="580" text-anchor="middle" font-family="Arial" font-size="12" font-weight="normal" fill="#111827">provisioning</text>
<line x1="1410" y1="570" x2="1430" y2="570" stroke="#A80036" stroke-width="1.1" marker-end="url(#arrow)"/>
<line x1="1600" y1="570" x2="1640" y2="570" stroke="#A80036" stroke-width="1.1" marker-end="url(#arrow)"/>
<path d="M1655 200 C1655 188, 1785 188, 1785 200 L1785 250 C1785 264, 1655 264, 1655 250 Z" fill="#DBEAFE" stroke="#2563EB"/>
<ellipse cx="1720" cy="200" rx="65" ry="12" fill="#BFDBFE" stroke="#2563EB"/>
<text x="1720" y="229" text-anchor="middle" font-family="Arial" font-size="12" font-weight="bold" fill="#111827">Orders DB</text>
<text x="1720" y="245" text-anchor="middle" font-family="Arial" font-size="12" font-weight="bold" fill="#111827">PostgreSQL</text>
<rect x="1655" y="305" width="130" height="70" rx="6" fill="#F8FAFC" stroke="#64748B" stroke-width="1.4"/>
<text x="1720.0" y="329" text-anchor="middle" font-family="Arial" font-size="13" font-weight="bold" fill="#111827">catalog-service</text>
<text x="1720.0" y="350" text-anchor="middle" font-family="Arial" font-size="12" font-weight="normal" fill="#111827">HTTP REST</text>
<rect x="1655" y="420" width="130" height="70" rx="6" fill="#F8FAFC" stroke="#64748B" stroke-width="1.4"/>
<text x="1720.0" y="444" text-anchor="middle" font-family="Arial" font-size="13" font-weight="bold" fill="#111827">billing-service</text>
<text x="1720.0" y="465" text-anchor="middle" font-family="Arial" font-size="12" font-weight="normal" fill="#111827">HTTP REST</text>
<rect x="1655" y="535" width="130" height="70" rx="6" fill="#F8FAFC" stroke="#64748B" stroke-width="1.4"/>
<text x="1720.0" y="559" text-anchor="middle" font-family="Arial" font-size="13" font-weight="bold" fill="#111827">HLR/HSS</text>
<text x="1720.0" y="580" text-anchor="middle" font-family="Arial" font-size="12" font-weight="normal" fill="#111827">simulated</text>
</svg>