<?xml version="1.0" encoding="UTF-8" standalone="no"?>
<!DOCTYPE svg PUBLIC "-//W3C//DTD SVG 1.1//EN"
 "http://www.w3.org/Graphics/SVG/1.1/DTD/svg11.dtd">
<!-- Generated by graphviz version 2.43.0 (0)
 -->
<!-- Title: G Pages: 1 -->
<svg width="715pt" height="317pt"
 viewBox="0.00 0.00 715.00 316.57" xmlns="http://www.w3.org/2000/svg" xmlns:xlink="http://www.w3.org/1999/xlink">
<g id="graph0" class="graph" transform="scale(1 1) rotate(0) translate(4 312.57)">
<title>G</title>
<polygon fill="white" stroke="transparent" points="-4,4 -4,-312.57 711,-312.57 711,4 -4,4"/>
<text text-anchor="middle" x="353.5" y="-290.17" font-family="Arial" font-size="18.00">Vue de construction &#45; Niveau 1 (CanTelcoX)</text>
<!-- Gateway -->
<g id="node1" class="node">
<title>Gateway</title>
<path fill="#dcfce7" stroke="#111827" d="M498,-280.57C498,-280.57 371,-280.57 371,-280.57 365,-280.57 359,-274.57 359,-268.57 359,-268.57 359,-254.57 359,-254.57 359,-248.57 365,-242.57 371,-242.57 371,-242.57 498,-242.57 498,-242.57 504,-242.57 510,-248.57 510,-254.57 510,-254.57 510,-268.57 510,-268.57 510,-274.57 504,-280.57 498,-280.57"/>
<text text-anchor="middle" x="434.5" y="-264.97" font-family="Arial" font-size="12.00">API Gateway</text>
<text text-anchor="middle" x="434.5" y="-251.97" font-family="Arial" font-size="12.00">FastAPI &#45; port 8000</text>
</g>
<!-- Identity -->
<g id="node2" class="node">
<title>Identity</title>
<path fill="#e0f2fe" stroke="#111827" d="M683,-150.57C683,-150.57 568,-150.57 568,-150.57 562,-150.57 556,-144.57 556,-138.57 556,-138.57 556,-124.57 556,-124.57 556,-118.57 562,-112.57 568,-112.57 568,-112.57 683,-112.57 683,-112.57 689,-112.57 695,-118.57 695,-124.57 695,-124.57 695,-138.57 695,-138.57 695,-144.57 689,-150.57 683,-150.57"/>
<text text-anchor="middle" x="625.5" y="-134.97" font-family="Arial" font-size="12.00">identity&#45;service</text>
<text text-anchor="middle" x="625.5" y="-121.97" font-family="Arial" font-size="12.00">Utilisateurs, auth, MFA</text>
</g>
<!-- Gateway&#45;&gt;Identity -->
<g id="edge12" class="edge">
<title>Gateway&#45;&gt;Identity</title>
<path fill="none" stroke="#a80036" d="M486.22,-242.51C562.45,-213.77 577.91,-202.57 608.64,-157.17"/>
<polygon fill="#a80036" stroke="#a80036" points="610.88,-158.54 612.88,-150.84 606.52,-155.61 610.88,-158.54"/>
<text text-anchor="middle" x="606" y="-199.37" font-family="Arial" font-size="9.00">auth</text>
<text text-anchor="middle" x="606" y="-189.37" font-family="Arial" font-size="9.00">MFA</text>
</g>
<!-- Catalog -->
<g id="node3" class="node">
<title>Catalog</title>
<path fill="#e0f2fe" stroke="#111827" d="M100,-39.57C100,-39.57 15,-39.57 15,-39.57 9,-39.57 3,-33.57 3,-27.57 3,-27.57 3,-13.57 3,-13.57 3,-7.57 9,-1.57 15,-1.57 15,-1.57 100,-1.57 100,-1.57 106,-1.57 112,-7.57 112,-13.57 112,-13.57 112,-27.57 112,-27.57 112,-33.57 106,-39.57 100,-39.57"/>
<text text-anchor="middle" x="57.5" y="-23.97" font-family="Arial" font-size="12.00">catalog&#45;service</text>
<text text-anchor="middle" x="57.5" y="-10.97" font-family="Arial" font-size="12.00">Catalogue, offres</text>
</g>
<!-- Gateway&#45;&gt;Catalog -->
<g id="edge9" class="edge">
<title>Gateway&#45;&gt;Catalog</title>
<path fill="none" stroke="#a80036" d="M390.23,-242.48C174.43,-149.23 153.16,-136.5 77.88,-45.43"/>
<polygon fill="#a80036" stroke="#a80036" points="79.88,-43.72 73.08,-39.6 75.83,-47.06 79.88,-43.72"/>
<text text-anchor="middle" x="78.09" y="-56.77" font-family="Arial" font-size="9.00">consulter offres</text>
</g>
<!-- Orders -->
<g id="node4" class="node">
<title>Orders</title>
<path fill="#e0f2fe" stroke="#111827" d="M360.5,-150.57C360.5,-150.57 234.5,-150.57 234.5,-150.57 228.5,-150.57 222.5,-144.57 222.5,-138.57 222.5,-138.57 222.5,-124.57 222.5,-124.57 222.5,-118.57 228.5,-112.57 234.5,-112.57 234.5,-112.57 360.5,-112.57 360.5,-112.57 366.5,-112.57 372.5,-118.57 372.5,-124.57 372.5,-124.57 372.5,-138.57 372.5,-138.57 372.5,-144.57 366.5,-150.57 360.5,-150.57"/>
<text text-anchor="middle" x="297.5" y="-134.97" font-family="Arial" font-size="12.00">order&#45;service</text>
<text text-anchor="middle" x="297.5" y="-121.97" font-family="Arial" font-size="12.00">Commandes, activations</text>
</g>
<!-- Gateway&#45;&gt;Orders -->
<g id="edge10" class="edge">
<title>Gateway&#45;&gt;Orders</title>
<path fill="none" stroke="#a80036" d="M396.19,-242.42C372.03,-228.07 357.45,-210.9 316.51,-156.8"/>
<polygon fill="#a80036" stroke="#a80036" points="318.55,-155.13 311.93,-150.73 314.36,-158.3 318.55,-155.13"/>
<text text-anchor="middle" x="366.5" y="-199.37" font-family="Arial" font-size="9.00">commande</text>
<text text-anchor="middle" x="366.5" y="-189.37" font-family="Arial" font-size="9.00">activation</text>
</g>
<!-- Customers -->
<g id="node5" class="node">
<title>Customers</title>
<path fill="#e0f2fe" stroke="#111827" d="M103,-150.57C103,-150.57 12,-150.57 12,-150.57 6,-150.57 0,-144.57 0,-138.57 0,-138.57 0,-124.57 0,-124.57 0,-118.57 6,-112.57 12,-112.57 12,-112.57 103,-112.57 103,-112.57 109,-112.57 115,-118.57 115,-124.57 115,-124.57 115,-138.57 115,-138.57 115,-144.57 109,-150.57 103,-150.57"/>
<text text-anchor="middle" x="57.5" y="-134.97" font-family="Arial" font-size="12.00">customers&#45;service</text>
<text text-anchor="middle" x="57.5" y="-121.97" font-family="Arial" font-size="12.00">Clients metier</text>
</g>
<!-- Gateway&#45;&gt;Customers -->
<g id="edge8" class="edge">
<title>Gateway&#45;&gt;Customers</title>
<path fill="none" stroke="#a80036" d="M358.88,-253.29C191.87,-234.4 166.4,-224.53 85.64,-155.8"/>
<polygon fill="#a80036" stroke="#a80036" points="87.13,-153.63 79.73,-150.75 83.72,-157.62 87.13,-153.63"/>
<text text-anchor="middle" x="171" y="-194.37" font-family="Arial" font-size="9.00">profil client</text>
</g>
<!-- Billing -->
<g id="node6" class="node">
<title>Billing</title>
<path fill="#e0f2fe" stroke="#111827" d="M695,-39.57C695,-39.57 556,-39.57 556,-39.57 550,-39.57 544,-33.57 544,-27.57 544,-27.57 544,-13.57 544,-13.57 544,-7.57 550,-1.57 556,-1.57 556,-1.57 695,-1.57 695,-1.57 701,-1.57 707,-7.57 707,-13.57 707,-13.57 707,-27.57 707,-27.57 707,-33.57 701,-39.57 695,-39.57"/>
<text text-anchor="middle" x="625.5" y="-23.97" font-family="Arial" font-size="12.00">billing&#45;service</text>
<text text-anchor="middle" x="625.5" y="-10.97" font-family="Arial" font-size="12.00">Usage, factures, paiements</text>
</g>
<!-- Gateway&#45;&gt;Billing -->
<g id="edge11" class="edge">
<title>Gateway&#45;&gt;Billing</title>
<path fill="none" stroke="#a80036" d="M459.29,-242.57C580.44,-149.55 592.16,-136.37 617.92,-47.26"/>
<polygon fill="#a80036" stroke="#a80036" points="620.51,-47.79 620.05,-39.85 615.46,-46.34 620.51,-47.79"/>
<text text-anchor="middle" x="623.18" y="-57.41" font-family="Arial" font-size="9.00">usage / paiement</text>
</g>
<!-- Audit -->
<g id="node7" class="node">
<title>Audit</title>
<path fill="#e0f2fe" stroke="#111827" d="M343.5,-39.57C343.5,-39.57 251.5,-39.57 251.5,-39.57 245.5,-39.57 239.5,-33.57 239.5,-27.57 239.5,-27.57 239.5,-13.57 239.5,-13.57 239.5,-7.57 245.5,-1.57 251.5,-1.57 251.5,-1.57 343.5,-1.57 343.5,-1.57 349.5,-1.57 355.5,-7.57 355.5,-13.57 355.5,-13.57 355.5,-27.57 355.5,-27.57 355.5,-33.57 349.5,-39.57 343.5,-39.57"/>
<text text-anchor="middle" x="297.5" y="-23.97" font-family="Arial" font-size="12.00">audit&#45;service</text>
<text text-anchor="middle" x="297.5" y="-10.97" font-family="Arial" font-size="12.00">Audit append&#45;only</text>
</g>
<!-- Gateway&#45;&gt;Audit -->
<g id="edge13" class="edge">
<title>Gateway&#45;&gt;Audit</title>
<path fill="none" stroke="#a80036" d="M432.33,-242.47C421.78,-151.53 415.24,-138.94 321.98,-45.12"/>
<polygon fill="#a80036" stroke="#a80036" points="323.75,-43.18 316.6,-39.71 320.03,-46.88 323.75,-43.18"/>
<text text-anchor="middle" x="491" y="-129.37" font-family="Arial" font-size="9.00">audit</text>
</g>
<!-- Identity&#45;&gt;Billing -->
<!-- Identity&#45;&gt;Audit -->
<g id="edge17" class="edge">
<title>Identity&#45;&gt;Audit</title>
<path fill="none" stroke="#a80036" stroke-dasharray="5,2" d="M603.57,-112.56C529.54,-48.97 508.77,-40.46 362.45,-26.52"/>
<polygon fill="#a80036" stroke="#a80036" points="362.52,-24.24 355.84,-25.89 362.1,-28.77 362.52,-24.24"/>
<text text-anchor="middle" x="465.72" y="-46.55" font-family="Arial" font-size="9.00" fill="#111827">trace auth</text>
</g>
<!-- Catalog&#45;&gt;Audit -->
<!-- Orders&#45;&gt;Identity -->
<!-- Orders&#45;&gt;Identity -->
<g id="edge15" class="edge">
<title>Orders&#45;&gt;Identity</title>
<path fill="none" stroke="#a80036" stroke-dasharray="5,2" d="M372.75,-114.23C425.62,-110.38 496.1,-110.36 549.2,-114.16"/>
<polygon fill="#a80036" stroke="#a80036" points="549.27,-116.44 555.92,-114.66 549.61,-111.91 549.27,-116.44"/>
<text text-anchor="middle" x="438.51" y="-114.13" font-family="Arial" font-size="9.00" fill="#111827">valider client</text>
</g>
<!-- Orders&#45;&gt;Catalog -->
<g id="edge14" class="edge">
<title>Orders&#45;&gt;Catalog</title>
<path fill="none" stroke="#a80036" stroke-dasharray="5,2" d="M253.64,-112.54C160.95,-72.28 132.96,-59.81 99.56,-42.69"/>
<polygon fill="#a80036" stroke="#a80036" points="100.51,-40.63 93.69,-39.67 98.43,-44.67 100.51,-40.63"/>
<text text-anchor="middle" x="105.93" y="-53.29" font-family="Arial" font-size="9.00" fill="#111827">verifier prix</text>
</g>
<!-- Orders&#45;&gt;Billing -->
<g id="edge16" class="edge">
<title>Orders&#45;&gt;Billing</title>
<path fill="none" stroke="#a80036" stroke-dasharray="5,2" d="M344.27,-112.56C452.12,-68.78 497.07,-51.11 537.46,-39.8"/>
<polygon fill="#a80036" stroke="#a80036" points="538.24,-41.94 543.91,-38.03 537.04,-37.55 538.24,-41.94"/>
<text text-anchor="middle" x="421.67" y="-66.8" font-family="Arial" font-size="9.00" fill="#111827">commande facturable</text>
</g>
<!-- Orders&#45;&gt;Audit -->
<!-- Customers&#45;&gt;Catalog -->
<!-- Customers&#45;&gt;Orders -->
<!-- Customers&#45;&gt;Audit -->
<g id="edge19" class="edge">
<title>Customers&#45;&gt;Audit</title>
<path fill="none" stroke="#a80036" stroke-dasharray="5,2" d="M75.97,-112.36C120.72,-66.47 138.29,-56.77 233.11,-34.94"/>
<polygon fill="#a80036" stroke="#a80036" points="233.64,-37.15 239.47,-33.48 232.63,-32.72 233.64,-37.15"/>
<text text-anchor="middle" x="79.78" y="-88.49" font-family="Arial" font-size="9.00" fill="#111827">trace profil</text>
</g>
<!-- Billing&#45;&gt;Audit -->
<g id="edge18" class="edge">
<title>Billing&#45;&gt;Audit</title>
<path fill="none" stroke="#a80036" stroke-dasharray="5,2" d="M297.51,-20.26C299.87,4.56 581.48,6.2 620.93,-15.32"/>
<polygon fill="#a80036" stroke="#a80036" points="619.41,-17.02 625.49,-20.26 622.75,-13.94 619.41,-17.02"/>
<text text-anchor="middle" x="431.26" y="-3.12" font-family="Arial" font-size="9.00" fill="#111827">trace paiement</text>
</g>
<!-- Audit&#45;&gt;Billing -->
</g>
</svg>
