<?xml version="1.0" encoding="UTF-8" standalone="no"?>
<!DOCTYPE svg PUBLIC "-//W3C//DTD SVG 1.1//EN"
 "http://www.w3.org/Graphics/SVG/1.1/DTD/svg11.dtd">
<!-- Generated by graphviz version 2.43.0 (0)
 -->
<!-- Title: G Pages: 1 -->
<svg width="1303pt" height="333pt"
 viewBox="0.00 0.00 1302.50 332.73" xmlns="http://www.w3.org/2000/svg" xmlns:xlink="http://www.w3.org/1999/xlink">
<g id="graph0" class="graph" transform="scale(1 1) rotate(0) translate(4 328.73)">
<title>G</title>
<polygon fill="white" stroke="transparent" points="-4,4 -4,-328.73 1298.5,-328.73 1298.5,4 -4,4"/>
<text text-anchor="middle" x="647.25" y="-306.33" font-family="Arial" font-size="18.00">Vue de construction &#45; Niveau 1 (CanTelcoX)</text>
<!-- Gateway -->
<g id="node1" class="node">
<title>Gateway</title>
<path fill="#dcfce7" stroke="#111827" d="M717,-296.73C717,-296.73 590,-296.73 590,-296.73 584,-296.73 578,-290.73 578,-284.73 578,-284.73 578,-270.73 578,-270.73 578,-264.73 584,-258.73 590,-258.73 590,-258.73 717,-258.73 717,-258.73 723,-258.73 729,-264.73 729,-270.73 729,-270.73 729,-284.73 729,-284.73 729,-290.73 723,-296.73 717,-296.73"/>
<text text-anchor="middle" x="653.5" y="-281.13" font-family="Arial" font-size="12.00">API Gateway</text>
<text text-anchor="middle" x="653.5" y="-268.13" font-family="Arial" font-size="12.00">FastAPI &#45; port 8000</text>
</g>
<!-- Identity -->
<g id="node2" class="node">
<title>Identity</title>
<path fill="#e0f2fe" stroke="#111827" d="M973,-166.73C973,-166.73 858,-166.73 858,-166.73 852,-166.73 846,-160.73 846,-154.73 846,-154.73 846,-140.73 846,-140.73 846,-134.73 852,-128.73 858,-128.73 858,-128.73 973,-128.73 973,-128.73 979,-128.73 985,-134.73 985,-140.73 985,-140.73 985,-154.73 985,-154.73 985,-160.73 979,-166.73 973,-166.73"/>
<text text-anchor="middle" x="915.5" y="-151.13" font-family="Arial" font-size="12.00">identity&#45;service</text>
<text text-anchor="middle" x="915.5" y="-138.13" font-family="Arial" font-size="12.00">Utilisateurs, auth, MFA</text>
</g>
<!-- Gateway&#45;&gt;Identity -->
<g id="edge14" class="edge">
<title>Gateway&#45;&gt;Identity</title>
<path fill="none" stroke="#a80036" d="M729.28,-259.92C826.61,-236.1 846.75,-224.14 893.43,-172.56"/>
<polygon fill="#a80036" stroke="#a80036" points="895.58,-174.09 898.64,-166.76 891.68,-170.58 895.58,-174.09"/>
<text text-anchor="middle" x="896" y="-215.53" font-family="Arial" font-size="9.00">auth</text>
<text text-anchor="middle" x="896" y="-205.53" font-family="Arial" font-size="9.00">MFA</text>
</g>
<!-- Catalog -->
<g id="node3" class="node">
<title>Catalog</title>
<path fill="#e0f2fe" stroke="#111827" d="M100,-55.73C100,-55.73 15,-55.73 15,-55.73 9,-55.73 3,-49.73 3,-43.73 3,-43.73 3,-29.73 3,-29.73 3,-23.73 9,-17.73 15,-17.73 15,-17.73 100,-17.73 100,-17.73 106,-17.73 112,-23.73 112,-29.73 112,-29.73 112,-43.73 112,-43.73 112,-49.73 106,-55.73 100,-55.73"/>
<text text-anchor="middle" x="57.5" y="-40.13" font-family="Arial" font-size="12.00">catalog&#45;service</text>
<text text-anchor="middle" x="57.5" y="-27.13" font-family="Arial" font-size="12.00">Catalogue, offres</text>
</g>
<!-- Gateway&#45;&gt;Catalog -->
<g id="edge11" class="edge">
<title>Gateway&#45;&gt;Catalog</title>
<path fill="none" stroke="#a80036" d="M584.74,-258.71C252.32,-166.63 220.45,-154.28 90.01,-60.28"/>
<polygon fill="#a80036" stroke="#a80036" points="91.34,-58.01 83.72,-55.74 88.26,-62.26 91.34,-58.01"/>
<text text-anchor="middle" x="93.47" y="-71.01" font-family="Arial" font-size="9.00">consulter offres</text>
</g>
<!-- Orders -->
<g id="node4" class="node">
<title>Orders</title>
<path fill="#e0f2fe" stroke="#111827" d="M372.5,-166.73C372.5,-166.73 234.5,-166.73 234.5,-166.73 228.5,-166.73 222.5,-160.73 222.5,-154.73 222.5,-154.73 222.5,-140.73 222.5,-140.73 222.5,-134.73 228.5,-128.73 234.5,-128.73 234.5,-128.73 372.5,-128.73 372.5,-128.73 378.5,-128.73 384.5,-134.73 384.5,-140.73 384.5,-140.73 384.5,-154.73 384.5,-154.73 384.5,-160.73 378.5,-166.73 372.5,-166.73"/>
<text text-anchor="middle" x="303.5" y="-151.13" font-family="Arial" font-size="12.00">order&#45;service</text>
<text text-anchor="middle" x="303.5" y="-138.13" font-family="Arial" font-size="12.00">Commandes, orchestration</text>
</g>
<!-- Gateway&#45;&gt;Orders -->
<g id="edge12" class="edge">
<title>Gateway&#45;&gt;Orders</title>
<path fill="none" stroke="#a80036" d="M577.77,-264.87C425.63,-238.52 400.1,-228.43 331.93,-171.75"/>
<polygon fill="#a80036" stroke="#a80036" points="333.51,-169.65 326.07,-166.85 330.15,-173.68 333.51,-169.65"/>
<text text-anchor="middle" x="443.5" y="-215.53" font-family="Arial" font-size="9.00">commande</text>
<text text-anchor="middle" x="443.5" y="-205.53" font-family="Arial" font-size="9.00">activation</text>
</g>
<!-- Customers -->
<g id="node6" class="node">
<title>Customers</title>
<path fill="#e0f2fe" stroke="#111827" d="M103,-166.73C103,-166.73 12,-166.73 12,-166.73 6,-166.73 0,-160.73 0,-154.73 0,-154.73 0,-140.73 0,-140.73 0,-134.73 6,-128.73 12,-128.73 12,-128.73 103,-128.73 103,-128.73 109,-128.73 115,-134.73 115,-140.73 115,-140.73 115,-154.73 115,-154.73 115,-160.73 109,-166.73 103,-166.73"/>
<text text-anchor="middle" x="57.5" y="-151.13" font-family="Arial" font-size="12.00">customers&#45;service</text>
<text text-anchor="middle" x="57.5" y="-138.13" font-family="Arial" font-size="12.00">Clients metier</text>
</g>
<!-- Gateway&#45;&gt;Customers -->
<g id="edge10" class="edge">
<title>Gateway&#45;&gt;Customers</title>
<path fill="none" stroke="#a80036" d="M577.76,-270.11C269.27,-238.93 229.7,-231.51 103.36,-170.26"/>
<polygon fill="#a80036" stroke="#a80036" points="104.39,-167.84 96.49,-166.92 102.09,-172.57 104.39,-167.84"/>
<text text-anchor="middle" x="209" y="-210.53" font-family="Arial" font-size="9.00">profil client</text>
</g>
<!-- Billing -->
<g id="node7" class="node">
<title>Billing</title>
<path fill="#e0f2fe" stroke="#111827" d="M985,-55.73C985,-55.73 846,-55.73 846,-55.73 840,-55.73 834,-49.73 834,-43.73 834,-43.73 834,-29.73 834,-29.73 834,-23.73 840,-17.73 846,-17.73 846,-17.73 985,-17.73 985,-17.73 991,-17.73 997,-23.73 997,-29.73 997,-29.73 997,-43.73 997,-43.73 997,-49.73 991,-55.73 985,-55.73"/>
<text text-anchor="middle" x="915.5" y="-40.13" font-family="Arial" font-size="12.00">billing&#45;service</text>
<text text-anchor="middle" x="915.5" y="-27.13" font-family="Arial" font-size="12.00">Usage, factures, paiements</text>
</g>
<!-- Gateway&#45;&gt;Billing -->
<g id="edge13" class="edge">
<title>Gateway&#45;&gt;Billing</title>
<path fill="none" stroke="#a80036" d="M686.21,-258.71C842.31,-167.78 857.48,-154.89 902.91,-62.6"/>
<polygon fill="#a80036" stroke="#a80036" points="905.29,-63.7 906.23,-55.81 900.57,-61.39 905.29,-63.7"/>
<text text-anchor="middle" x="905.84" y="-73.61" font-family="Arial" font-size="9.00">usage / paiement</text>
</g>
<!-- Audit -->
<g id="node8" class="node">
<title>Audit</title>
<path fill="#e0f2fe" stroke="#111827" d="M349.5,-55.73C349.5,-55.73 257.5,-55.73 257.5,-55.73 251.5,-55.73 245.5,-49.73 245.5,-43.73 245.5,-43.73 245.5,-29.73 245.5,-29.73 245.5,-23.73 251.5,-17.73 257.5,-17.73 257.5,-17.73 349.5,-17.73 349.5,-17.73 355.5,-17.73 361.5,-23.73 361.5,-29.73 361.5,-29.73 361.5,-43.73 361.5,-43.73 361.5,-49.73 355.5,-55.73 349.5,-55.73"/>
<text text-anchor="middle" x="303.5" y="-40.13" font-family="Arial" font-size="12.00">audit&#45;service</text>
<text text-anchor="middle" x="303.5" y="-27.13" font-family="Arial" font-size="12.00">Audit append&#45;only</text>
</g>
<!-- Gateway&#45;&gt;Audit -->
<g id="edge15" class="edge">
<title>Gateway&#45;&gt;Audit</title>
<path fill="none" stroke="#a80036" d="M611.43,-258.69C410.26,-167.51 390.47,-154.76 322.02,-62.02"/>
<polygon fill="#a80036" stroke="#a80036" points="324,-60.28 317.44,-55.8 319.77,-63.39 324,-60.28"/>
<text text-anchor="middle" x="781" y="-145.53" font-family="Arial" font-size="9.00">audit</text>
</g>
<!-- Identity&#45;&gt;Billing -->
<!-- Identity&#45;&gt;Audit -->
<g id="edge22" class="edge">
<title>Identity&#45;&gt;Audit</title>
<path fill="none" stroke="#a80036" stroke-dasharray="5,2" d="M871.19,-128.69C576.26,-2.15 538.05,9.41 368.36,-23.58"/>
<polygon fill="#a80036" stroke="#a80036" points="367.69,-21.39 361.75,-24.87 368.57,-25.86 367.69,-21.39"/>
<text text-anchor="middle" x="552.31" y="-19.11" font-family="Arial" font-size="9.00" fill="#111827">trace auth</text>
</g>
<!-- Catalog&#45;&gt;Audit -->
<!-- Orders&#45;&gt;Identity -->
<g id="edge17" class="edge">
<title>Orders&#45;&gt;Identity</title>
<path fill="none" stroke="#a80036" stroke-dasharray="5,2" d="M384.7,-136.15C493.19,-122.08 552.17,-124.28 838.76,-142.76"/>
<polygon fill="#a80036" stroke="#a80036" points="838.94,-145.05 845.57,-143.2 839.23,-140.51 838.94,-145.05"/>
<text text-anchor="middle" x="589.52" y="-122.4" font-family="Arial" font-size="9.00" fill="#111827">valider client</text>
</g>
<!-- Orders&#45;&gt;Catalog -->
<g id="edge16" class="edge">
<title>Orders&#45;&gt;Catalog</title>
<path fill="none" stroke="#a80036" stroke-dasharray="5,2" d="M249.96,-128.62C152.22,-93.6 127.28,-83.21 90.79,-59.39"/>
<polygon fill="#a80036" stroke="#a80036" points="91.99,-57.46 85.31,-55.78 89.49,-61.25 91.99,-57.46"/>
<text text-anchor="middle" x="95.79" y="-70.61" font-family="Arial" font-size="9.00" fill="#111827">verifier prix</text>
</g>
<!-- Lines -->
<g id="node5" class="node">
<title>Lines</title>
<path fill="#e0f2fe" stroke="#111827" d="M650.5,-166.73C650.5,-166.73 504.5,-166.73 504.5,-166.73 498.5,-166.73 492.5,-160.73 492.5,-154.73 492.5,-154.73 492.5,-140.73 492.5,-140.73 492.5,-134.73 498.5,-128.73 504.5,-128.73 504.5,-128.73 650.5,-128.73 650.5,-128.73 656.5,-128.73 662.5,-134.73 662.5,-140.73 662.5,-140.73 662.5,-154.73 662.5,-154.73 662.5,-160.73 656.5,-166.73 650.5,-166.73"/>
<text text-anchor="middle" x="577.5" y="-151.13" font-family="Arial" font-size="12.00">line&#45;service</text>
<text text-anchor="middle" x="577.5" y="-138.13" font-family="Arial" font-size="12.00">Lignes, SIM/SUPI, activation</text>
</g>
<!-- Orders&#45;&gt;Lines -->
<!-- Orders&#45;&gt;Lines -->
<g id="edge19" class="edge">
<title>Orders&#45;&gt;Lines</title>
<path fill="none" stroke="#a80036" stroke-dasharray="5,2" d="M384.6,-129.06C416.4,-127.16 453.06,-126.97 485.83,-128.5"/>
<polygon fill="#a80036" stroke="#a80036" points="485.72,-130.77 492.32,-128.82 485.95,-126.22 485.72,-130.77"/>
<text text-anchor="middle" x="397.99" y="-120.28" font-family="Arial" font-size="9.00" fill="#111827">demande activation</text>
</g>
<!-- Orders&#45;&gt;Billing -->
<g id="edge18" class="edge">
<title>Orders&#45;&gt;Billing</title>
<path fill="none" stroke="#a80036" stroke-dasharray="5,2" d="M332.21,-128.51C527.52,1.87 557.3,12.06 826.82,-24.42"/>
<polygon fill="#a80036" stroke="#a80036" points="826.89,-26.73 833.64,-25.35 827.5,-22.22 826.89,-26.73"/>
<text text-anchor="middle" x="528.69" y="-2.8" font-family="Arial" font-size="9.00" fill="#111827">commande facturable</text>
</g>
<!-- Orders&#45;&gt;Audit -->
<!-- Lines&#45;&gt;Identity -->
<!-- Lines&#45;&gt;Audit -->
<g id="edge21" class="edge">
<title>Lines&#45;&gt;Audit</title>
<path fill="none" stroke="#a80036" stroke-dasharray="5,2" d="M527.03,-128.66C420.71,-88.48 389.22,-76.22 350.56,-58.67"/>
<polygon fill="#a80036" stroke="#a80036" points="351.13,-56.43 344.28,-55.8 349.24,-60.57 351.13,-56.43"/>
<text text-anchor="middle" x="382.41" y="-87.97" font-family="Arial" font-size="9.00" fill="#111827">trace activation</text>
</g>
<!-- Free5GC -->
<g id="node9" class="node">
<title>Free5GC</title>
<path fill="#fed7aa" stroke="#111827" d="M1282.5,-55.73C1282.5,-55.73 1116.5,-55.73 1116.5,-55.73 1110.5,-55.73 1104.5,-49.73 1104.5,-43.73 1104.5,-43.73 1104.5,-29.73 1104.5,-29.73 1104.5,-23.73 1110.5,-17.73 1116.5,-17.73 1116.5,-17.73 1282.5,-17.73 1282.5,-17.73 1288.5,-17.73 1294.5,-23.73 1294.5,-29.73 1294.5,-29.73 1294.5,-43.73 1294.5,-43.73 1294.5,-49.73 1288.5,-55.73 1282.5,-55.73"/>
<text text-anchor="middle" x="1199.5" y="-40.13" font-family="Arial" font-size="12.00">free5GC core</text>
<text text-anchor="middle" x="1199.5" y="-27.13" font-family="Arial" font-size="12.00">AMF/SMF/UDM/UDR/NRF/UPF</text>
</g>
<!-- Lines&#45;&gt;Free5GC -->
<g id="edge20" class="edge">
<title>Lines&#45;&gt;Free5GC</title>
<path fill="none" stroke="#a80036" stroke-dasharray="5,2" d="M662.5,-130.97C931.14,-78.02 1000.63,-64.78 1097.8,-50.75"/>
<polygon fill="#a80036" stroke="#a80036" points="1098.14,-53 1104.25,-49.82 1097.49,-48.49 1098.14,-53"/>
<text text-anchor="middle" x="992.46" y="-79.06" font-family="Arial" font-size="9.00" fill="#111827">provisioning ligne / SIM</text>
</g>
<!-- Customers&#45;&gt;Catalog -->
<!-- Customers&#45;&gt;Orders -->
<!-- Customers&#45;&gt;Audit -->
<g id="edge24" class="edge">
<title>Customers&#45;&gt;Audit</title>
<path fill="none" stroke="#a80036" stroke-dasharray="5,2" d="M78.81,-128.62C121.3,-91.27 140.59,-81.93 238.96,-54.45"/>
<polygon fill="#a80036" stroke="#a80036" points="239.59,-56.64 245.24,-52.7 238.37,-52.26 239.59,-56.64"/>
<text text-anchor="middle" x="84.29" y="-105.12" font-family="Arial" font-size="9.00" fill="#111827">trace profil</text>
</g>
<!-- Billing&#45;&gt;Audit -->
<g id="edge23" class="edge">
<title>Billing&#45;&gt;Audit</title>
<path fill="none" stroke="#a80036" stroke-dasharray="5,2" d="M303.53,-36.41C307.99,-11.23 848.86,-9.9 909.91,-32.43"/>
<polygon fill="#a80036" stroke="#a80036" points="908.86,-34.47 915.47,-36.41 911.51,-30.78 908.86,-34.47"/>
<text text-anchor="middle" x="639.99" y="-19.28" font-family="Arial" font-size="9.00" fill="#111827">trace paiement</text>
</g>
<!-- Billing&#45;&gt;Free5GC -->
<!-- Audit&#45;&gt;Billing -->
</g>
</svg>
