<?xml version="1.0" encoding="UTF-8" standalone="no"?><svg xmlns="http://www.w3.org/2000/svg" xmlns:xlink="http://www.w3.org/1999/xlink" contentScriptType="application/ecmascript" contentStyleType="text/css" height="1221px" preserveAspectRatio="none" style="width:1638px;height:1221px;" version="1.1" viewBox="0 0 1638 1221" width="1638px" zoomAndPan="magnify"><defs/><g><text fill="#000000" font-family="Arial" font-size="18" lengthAdjust="spacingAndGlyphs" textLength="452" x="592" y="19.2419">Section 3.1 - Contexte metier CanTelcoX API Gateway</text><!--MD5=[5cbbd48225a6a313f6e5bba379f74669]
cluster ClientChannels--><rect fill="#EFF6FF" height="94" rx="4" ry="4" style="stroke: #000000; stroke-width: 1.5;" width="149" x="229" y="256.5158"/><text fill="#000000" font-family="Arial" font-size="14" font-weight="bold" lengthAdjust="spacingAndGlyphs" textLength="100" x="253.5" y="273.4818">Canaux clients</text><!--MD5=[7772a2c0eb0eced9484310deb93e32c2]
cluster Gateway--><rect fill="#DCFCE7" height="166" rx="4" ry="4" style="stroke: #000000; stroke-width: 1.5;" width="985.5" x="608.5" y="156.5158"/><text fill="#000000" font-family="Arial" font-size="14" font-weight="bold" lengthAdjust="spacingAndGlyphs" textLength="142" x="1030.25" y="173.4818">Systeme documente</text><text fill="#000000" font-family="Arial" font-size="14" font-weight="bold" lengthAdjust="spacingAndGlyphs" textLength="163" x="1019.75" y="192.5497">CanTelcoX API Gateway</text><!--MD5=[cebc4953025eb699f5485e442f7506a9]
cluster Upstream--><rect fill="#F8FAFC" height="596" rx="4" ry="4" style="stroke: #000000; stroke-width: 1.5;" width="260" x="1027" y="354.5158"/><text fill="#000000" font-family="Arial" font-size="14" font-weight="bold" lengthAdjust="spacingAndGlyphs" textLength="156" x="1079" y="371.4818">Services metier amont</text><text fill="#000000" font-family="Arial" font-size="14" font-weight="bold" lengthAdjust="spacingAndGlyphs" textLength="244" x="1035" y="390.5497">(hors perimetre du depot gateway)</text><!--MD5=[31ba93973bc7c9d0a17e495fb2f93281]
cluster Observability--><rect fill="#F1F5F9" height="112" rx="4" ry="4" style="stroke: #000000; stroke-width: 1.5;" width="600" x="643" y="974.5158"/><text fill="#000000" font-family="Arial" font-size="14" font-weight="bold" lengthAdjust="spacingAndGlyphs" textLength="92" x="897" y="991.4818">Observabilite</text><!--MD5=[194a92f280a7d2c2f105939ff984a7cf]
entity Frontend--><rect fill="#DBEAFE" height="39.0679" rx="4" ry="4" style="stroke: #000000; stroke-width: 1.5;" width="117" x="245" y="295.0158"/><text fill="#000000" font-family="Arial" font-size="14" lengthAdjust="spacingAndGlyphs" textLength="97" x="255" y="319.9818">Frontend Expo</text><!--MD5=[e06aa0c3ee6beacca3385cf28a72a945]
entity StableUrl--><rect fill="#BBF7D0" height="58.1358" rx="4" ry="4" style="stroke: #000000; stroke-width: 1.5;" width="127" x="632.5" y="221.5158"/><text fill="#000000" font-family="Arial" font-size="14" lengthAdjust="spacingAndGlyphs" textLength="107" x="642.5" y="246.4818">Base URL stable</text><text fill="#000000" font-family="Arial" font-size="14" lengthAdjust="spacingAndGlyphs" textLength="95" x="642.5" y="265.5497">HTTP REST /v1</text><!--MD5=[953a8c67cfe21abaf9bf45dad8506ca8]
entity Router--><rect fill="#BBF7D0" height="58.1358" rx="4" ry="4" style="stroke: #000000; stroke-width: 1.5;" width="148" x="1083" y="221.5158"/><text fill="#000000" font-family="Arial" font-size="14" lengthAdjust="spacingAndGlyphs" textLength="114" x="1093" y="246.4818">Proxy de routage</text><text fill="#000000" font-family="Arial" font-size="14" lengthAdjust="spacingAndGlyphs" textLength="128" x="1093" y="265.5497">/v1/{service}/{path}</text><!--MD5=[bd459546f49a3cecc18a657256c8062b]
entity Diagnostics--><rect fill="#BBF7D0" height="58.1358" rx="4" ry="4" style="stroke: #000000; stroke-width: 1.5;" width="137" x="1433" y="221.5158"/><text fill="#000000" font-family="Arial" font-size="14" lengthAdjust="spacingAndGlyphs" textLength="71" x="1443" y="246.4818">Diagnostic</text><text fill="#000000" font-family="Arial" font-size="14" lengthAdjust="spacingAndGlyphs" textLength="117" x="1443" y="265.5497">/health et /routes</text><!--MD5=[8d41708a2ff900aa7fd7aa9f1d7ea372]
entity Identity--><rect fill="#E0F2FE" height="58.1358" rx="4" ry="4" style="stroke: #000000; stroke-width: 1.5;" width="173" x="1070.5" y="411.5158"/><text fill="#000000" font-family="Arial" font-size="14" lengthAdjust="spacingAndGlyphs" textLength="103" x="1080.5" y="436.4818">identity-service</text><text fill="#000000" font-family="Arial" font-size="14" lengthAdjust="spacingAndGlyphs" textLength="153" x="1080.5" y="455.5497">Utilisateurs, auth, MFA</text><!--MD5=[b6c4ffbd0eb4085aa75110d1e0860a48]
entity Orders--><rect fill="#E0F2FE" height="58.1358" rx="4" ry="4" style="stroke: #000000; stroke-width: 1.5;" width="184" x="1065" y="504.5158"/><text fill="#000000" font-family="Arial" font-size="14" lengthAdjust="spacingAndGlyphs" textLength="89" x="1075" y="529.4818">order-service</text><text fill="#000000" font-family="Arial" font-size="14" lengthAdjust="spacingAndGlyphs" textLength="164" x="1075" y="548.5497">Commandes, activations</text><!--MD5=[215287eedb9f9e2233710674640c5d48]
entity Catalog--><rect fill="#E0F2FE" height="58.1358" rx="4" ry="4" style="stroke: #000000; stroke-width: 1.5;" width="135" x="1089.5" y="597.5158"/><text fill="#000000" font-family="Arial" font-size="14" lengthAdjust="spacingAndGlyphs" textLength="101" x="1099.5" y="622.4818">catalog-service</text><text fill="#000000" font-family="Arial" font-size="14" lengthAdjust="spacingAndGlyphs" textLength="115" x="1099.5" y="641.5497">Catalogue, offres</text><!--MD5=[41e5f0882eeb2ee544322f099364aff0]
entity Customers--><rect fill="#E0F2FE" height="58.1358" rx="4" ry="4" style="stroke: #000000; stroke-width: 1.5;" width="142" x="1086" y="690.5158"/><text fill="#000000" font-family="Arial" font-size="14" lengthAdjust="spacingAndGlyphs" textLength="122" x="1096" y="715.4818">customers-service</text><text fill="#000000" font-family="Arial" font-size="14" lengthAdjust="spacingAndGlyphs" textLength="46" x="1096" y="734.5497">Clients</text><!--MD5=[8a394f96b0ce110dbdfdee486f17d343]
entity Billing--><rect fill="#E0F2FE" height="58.1358" rx="4" ry="4" style="stroke: #000000; stroke-width: 1.5;" width="125" x="1094.5" y="783.5158"/><text fill="#000000" font-family="Arial" font-size="14" lengthAdjust="spacingAndGlyphs" textLength="95" x="1104.5" y="808.4818">billing-service</text><text fill="#000000" font-family="Arial" font-size="14" lengthAdjust="spacingAndGlyphs" textLength="105" x="1104.5" y="827.5497">Usage, factures</text><!--MD5=[99cbb757e0c7a8a66517a3e5acdeef2a]
entity Audit--><rect fill="#E0F2FE" height="58.1358" rx="4" ry="4" style="stroke: #000000; stroke-width: 1.5;" width="145" x="1084.5" y="876.5158"/><text fill="#000000" font-family="Arial" font-size="14" lengthAdjust="spacingAndGlyphs" textLength="87" x="1094.5" y="901.4818">audit-service</text><text fill="#000000" font-family="Arial" font-size="14" lengthAdjust="spacingAndGlyphs" textLength="125" x="1094.5" y="920.5497">Audit append-only</text><!--MD5=[aaf62909b13b28952145fd9a473d58e8]
entity Blackbox--><rect fill="#E2E8F0" height="58.1358" rx="4" ry="4" style="stroke: #000000; stroke-width: 1.5;" width="140" x="1087" y="1012.5158"/><text fill="#000000" font-family="Arial" font-size="14" lengthAdjust="spacingAndGlyphs" textLength="81" x="1097" y="1037.4818">Prometheus</text><text fill="#000000" font-family="Arial" font-size="14" lengthAdjust="spacingAndGlyphs" textLength="120" x="1097" y="1056.5497">Blackbox Exporter</text><!--MD5=[1e38ee63cc23f89100e14039e3aadfb2]
entity Grafana--><rect fill="#E2E8F0" height="39.0679" rx="4" ry="4" style="stroke: #000000; stroke-width: 1.5;" width="74" x="659" y="1016.0158"/><text fill="#000000" font-family="Arial" font-size="14" lengthAdjust="spacingAndGlyphs" textLength="54" x="669" y="1040.9818">Grafana</text><!--MD5=[e7bc41b35c8c15ce318d0d8e26943c71]
entity Subscribers--><ellipse cx="76" cy="274.0158" fill="#F8FAFC" rx="8" ry="8" style="stroke: #2F3A4A; stroke-width: 1.5;"/><path d="M76,282.0158 L76,309.0158 M63,290.0158 L89,290.0158 M76,309.0158 L63,324.0158 M76,309.0158 L89,324.0158 " fill="none" style="stroke: #2F3A4A; stroke-width: 1.5;"/><text fill="#000000" font-family="Arial" font-size="14" lengthAdjust="spacingAndGlyphs" textLength="140" x="6" y="341.4818">Abonnes particuliers</text><text fill="#000000" font-family="Arial" font-size="14" lengthAdjust="spacingAndGlyphs" textLength="38" x="6" y="360.5497">/ PME</text><!--MD5=[2571bb1592dc874a255a7701a0171bbf]
entity Operator--><ellipse cx="1157" cy="42.0158" fill="#F8FAFC" rx="8" ry="8" style="stroke: #2F3A4A; stroke-width: 1.5;"/><path d="M1157,50.0158 L1157,77.0158 M1144,58.0158 L1170,58.0158 M1157,77.0158 L1144,92.0158 M1157,77.0158 L1170,92.0158 " fill="none" style="stroke: #2F3A4A; stroke-width: 1.5;"/><text fill="#000000" font-family="Arial" font-size="14" lengthAdjust="spacingAndGlyphs" textLength="70" x="1113.5" y="109.4818">Operateur</text><text fill="#000000" font-family="Arial" font-size="14" lengthAdjust="spacingAndGlyphs" textLength="87" x="1113.5" y="128.5497">(exploitation)</text><path d="M512,69.0158 L512,132.1339 L880,132.1339 L880,79.0158 L870,69.0158 L512,69.0158 " fill="#FBFB77" style="stroke: #A80036; stroke-width: 1.0;"/><path d="M870,69.0158 L870,79.0158 L880,79.0158 L870,69.0158 " fill="#FBFB77" style="stroke: #A80036; stroke-width: 1.0;"/><text fill="#000000" font-family="Arial" font-size="13" lengthAdjust="spacingAndGlyphs" textLength="314" x="518" y="87.9129">Le gateway masque la localisation reelle des services,</text><text fill="#000000" font-family="Arial" font-size="13" lengthAdjust="spacingAndGlyphs" textLength="347" x="518" y="105.6189">fournit une base URL stable au frontend et expose /routes</text><text fill="#000000" font-family="Arial" font-size="13" lengthAdjust="spacingAndGlyphs" textLength="269" x="518" y="123.3249">pour diagnostiquer la configuration effective.</text><!--MD5=[d2ddc4b1f6b3be563ff0174f620742b2]
link Subscribers to Frontend--><path d="M146.19,314.5158 C175.93,314.5158 210.45,314.5158 239.47,314.5158 " fill="none" id="Subscribers-&gt;Frontend" style="stroke: #A80036; stroke-width: 1.0;"/><polygon fill="#A80036" points="244.82,314.5158,235.82,310.5158,239.82,314.5158,235.82,318.5158,244.82,314.5158" style="stroke: #A80036; stroke-width: 1.0;"/><text fill="#000000" font-family="Arial" font-size="13" lengthAdjust="spacingAndGlyphs" textLength="35" x="177" y="310.4129">utilise</text><!--MD5=[c6dd312302da65f7b863fd53be257957]
link Frontend to Gateway--><path d="M362.12,314.5158 C415.585,314.5158 497.06,314.5158 566.0213,314.5158 C574.6414,314.5158 583.066,314.5158 591.216,314.5158 C595.291,314.5158 599.2973,314.5158 603.225,314.5158 C604.207,314.5158 605.184,314.5158 606.1559,314.5158 C606.6419,314.5158 607.1266,314.5158 607.6101,314.5158 " fill="none" id="Frontend-&gt;Gateway" style="stroke: #A80036; stroke-width: 1.0;"/><polygon fill="#A80036" points="607.6101,314.5158,598.6101,310.5158,602.6101,314.5158,598.6101,318.5158,607.6101,314.5158" style="stroke: #A80036; stroke-width: 1.0;"/><text fill="#000000" font-family="Arial" font-size="13" lengthAdjust="spacingAndGlyphs" textLength="86" x="395" y="310.4129">HTTP REST /v1</text><!--MD5=[58905e6d178b804c83d697972484aaff]
link Gateway to Identity--><path d="M726.3631,322.5739 C726.6936,322.6646 727.0267,322.756 727.3621,322.8481 C728.0329,323.0322 728.7133,323.219 729.4032,323.4084 C732.1627,324.1659 735.0735,324.9649 738.1256,325.8027 C762.5425,332.5052 796.005,341.6908 833.445,351.9683 C908.325,372.5233 999.115,397.4458 1065.27,415.6058 " fill="none" id="Gateway-&gt;Identity" style="stroke: #A80036; stroke-width: 1.0;"/><polygon fill="#A80036" points="1070.33,416.9958,1062.7136,410.7516,1065.5092,415.6694,1060.5913,418.4649,1070.33,416.9958" style="stroke: #A80036; stroke-width: 1.0;"/><text fill="#000000" font-family="Arial" font-size="13" lengthAdjust="spacingAndGlyphs" textLength="68" x="926.5" y="352.4129">/v1/users/*</text><text fill="#000000" font-family="Arial" font-size="13" lengthAdjust="spacingAndGlyphs" textLength="64" x="928.5" y="370.1189">/v1/auth/*</text><!--MD5=[85465f3c61b1fbd0afcccb29e71a7817]
link Gateway to Orders--><path d="M710.3556,322.6589 C710.5553,322.7797 710.7572,322.9017 710.9611,323.0249 C712.5922,324.0106 714.3557,325.0737 716.2456,326.21 C720.0253,328.4825 724.311,331.0476 729.0566,333.8702 C748.0387,345.1608 774.3787,360.5733 805.13,377.8758 C866.6325,412.4808 945.78,454.6458 1019,486.5158 C1032.15,492.2458 1046.25,497.7458 1060.21,502.8558 " fill="none" id="Gateway-&gt;Orders" style="stroke: #A80036; stroke-width: 1.0;"/><polygon fill="#A80036" points="1064.94,504.5658,1057.8555,497.7241,1060.2427,502.8525,1055.1142,505.2397,1064.94,504.5658" style="stroke: #A80036; stroke-width: 1.0;"/><text fill="#000000" font-family="Arial" font-size="13" lengthAdjust="spacingAndGlyphs" textLength="75" x="923" y="431.4129">/v1/orders/*</text><!--MD5=[fb18a61cc3cdfe6eeb9153d19eeb2150]
link Gateway to Catalog--><path d="M704.215,322.88 C704.3575,323.0427 704.5022,323.2076 704.6488,323.3747 C704.942,323.7089 705.2433,324.0518 705.5526,324.4032 C710.5011,330.0258 717.4953,337.8389 726.2694,347.3032 C743.8175,366.2318 768.485,391.7652 798.145,419.5896 C857.465,475.2383 936.755,540.0508 1019,579.5158 C1039.65,589.4258 1062.96,598.2358 1084.41,605.4758 " fill="none" id="Gateway-&gt;Catalog" style="stroke: #A80036; stroke-width: 1.0;"/><polygon fill="#A80036" points="1089.25,607.0858,1081.9828,600.4385,1084.508,605.5004,1079.4461,608.0257,1089.25,607.0858" style="stroke: #A80036; stroke-width: 1.0;"/><text fill="#000000" font-family="Arial" font-size="13" lengthAdjust="spacingAndGlyphs" textLength="80" x="920.5" y="510.4129">/v1/catalog/*</text><!--MD5=[a0e6cef70b966495b0807435f563b86d]
link Gateway to Customers--><path d="M701.5336,322.6915 C701.6235,322.8512 701.7146,323.0131 701.8069,323.1771 C701.9917,323.5052 702.1816,323.8419 702.3766,324.1872 C705.4963,329.7119 709.9188,337.4258 715.5002,346.8638 C726.6628,365.7399 742.4606,391.5127 761.7413,420.4621 C800.3025,478.3608 852.795,548.9658 910,602.5158 C952.03,641.8658 967.17,647.4358 1019,672.5158 C1038.49,681.9458 1060.36,690.3458 1080.82,697.3458 " fill="none" id="Gateway-&gt;Customers" style="stroke: #A80036; stroke-width: 1.0;"/><polygon fill="#A80036" points="1085.71,699.0058,1078.4669,692.3322,1080.9738,697.4033,1075.9027,699.9102,1085.71,699.0058" style="stroke: #A80036; stroke-width: 1.0;"/><text fill="#000000" font-family="Arial" font-size="13" lengthAdjust="spacingAndGlyphs" textLength="99" x="911" y="598.4129">/v1/customers/*</text><!--MD5=[fdb09f818269fe0843ce25fd65df4de8]
link Gateway to Billing--><path d="M699.7931,322.5585 C699.9254,322.9311 700.0624,323.316 700.204,323.7128 C700.4871,324.5065 700.7888,325.3484 701.1088,326.2371 C703.669,333.3472 707.4058,343.4585 712.2672,355.9262 C721.99,380.8615 736.2113,415.2221 754.515,453.8483 C791.1225,531.1008 844.06,625.4158 910,695.5158 C958.6,747.1758 1034.68,778.4658 1089.37,795.5158 " fill="none" id="Gateway-&gt;Billing" style="stroke: #A80036; stroke-width: 1.0;"/><polygon fill="#A80036" points="1094.26,797.0258,1086.833,790.5575,1089.4808,795.5564,1084.4819,798.2042,1094.26,797.0258" style="stroke: #A80036; stroke-width: 1.0;"/><text fill="#000000" font-family="Arial" font-size="13" lengthAdjust="spacingAndGlyphs" textLength="72" x="924.5" y="691.4129">/v1/billing/*</text><!--MD5=[3655548885055f1bc7c14031652b762f]
link Gateway to Audit--><path d="M698.7386,322.6183 C698.7854,322.8292 698.8331,323.0439 698.8817,323.2626 C699.2711,325.0116 699.7218,327.0088 700.2347,329.2414 C702.2867,338.1718 705.3352,350.8687 709.4392,366.516 C717.6472,397.8105 730.0769,440.9065 747.1988,489.2746 C781.4425,586.0108 834.455,703.8358 910,790.5158 C954.05,841.0558 1025.07,870.9358 1079.51,887.5058 " fill="none" id="Gateway-&gt;Audit" style="stroke: #A80036; stroke-width: 1.0;"/><polygon fill="#A80036" points="1084.39,888.9758,1076.9049,882.5748,1079.5977,887.5496,1074.6229,890.2424,1084.39,888.9758" style="stroke: #A80036; stroke-width: 1.0;"/><text fill="#000000" font-family="Arial" font-size="13" lengthAdjust="spacingAndGlyphs" textLength="67" x="927" y="786.4129">/v1/audit/*</text><!--MD5=[4fd615d31b0414b5b5f73db857da30a0]
link Operator to Diagnostics--><path d="M1200.69,103.4558 C1259.88,132.4858 1367.36,185.2058 1436.26,219.0058 " fill="none" id="Operator-&gt;Diagnostics" style="stroke: #A80036; stroke-width: 1.0;"/><polygon fill="#A80036" points="1441.16,221.4058,1434.8409,213.8515,1436.6708,219.2042,1431.3182,221.0341,1441.16,221.4058" style="stroke: #A80036; stroke-width: 1.0;"/><text fill="#000000" font-family="Arial" font-size="13" lengthAdjust="spacingAndGlyphs" textLength="98" x="1304" y="152.4129">consulte /routes</text><!--MD5=[033ef862cd5ae5eef7a394d824df65d9]
link Blackbox to Diagnostics--><path d="M1220.57,1012.3658 C1246.92,997.2658 1275.86,976.4958 1295,950.5158 C1454.96,733.4258 1490.99,393.2658 1498.59,284.8858 " fill="none" id="Blackbox-&gt;Diagnostics" style="stroke: #A80036; stroke-width: 1.0;"/><polygon fill="#A80036" points="1498.95,279.6058,1494.3685,288.3242,1498.6221,284.5951,1502.3512,288.8488,1498.95,279.6058" style="stroke: #A80036; stroke-width: 1.0;"/><text fill="#000000" font-family="Arial" font-size="13" lengthAdjust="spacingAndGlyphs" textLength="83" x="1311.5" y="755.4129">sonde /health</text><!--MD5=[908f4b7927468193a6207885f8bbf57f]
link Grafana to Blackbox--><path d="M733.02,1035.9858 C807.87,1036.9658 981.55,1039.2358 1081.53,1040.5458 " fill="none" id="Grafana-&gt;Blackbox" style="stroke: #A80036; stroke-width: 1.0;"/><polygon fill="#A80036" points="1086.82,1040.6158,1077.8781,1036.4877,1081.8205,1040.5444,1077.7638,1044.4869,1086.82,1040.6158" style="stroke: #A80036; stroke-width: 1.0;"/><text fill="#000000" font-family="Arial" font-size="13" lengthAdjust="spacingAndGlyphs" textLength="83" x="919" y="1034.4129">visualise l'etat</text><!--MD5=[3f19db5148a6a77ecc9141aecd53691e]
link StableUrl to Router--><!--MD5=[5c0d5ae1dc43a567c647253e0765a7c5]
link Router to Diagnostics--><!--MD5=[79ef78ee2dfa861b711d0c2742c9cefe]
link Gateway to GMN33--><path d="M659.8855,322.5374 C659.2954,322.6432 658.6996,322.7488 658.0984,322.8542 C656.896,323.0651 655.6717,323.2751 654.4266,323.4837 C651.9363,323.9008 649.3626,324.312 646.7137,324.7119 C641.4158,325.5117 635.8167,326.2665 629.9814,326.9336 C618.3109,328.2679 605.6956,329.2515 592.655,329.5433 C540.4925,330.7108 481.525,320.8108 449,278.0158 C399.95,213.4858 498.53,162.5258 585.33,132.0558 " fill="none" id="Gateway-GMN33" style="stroke: #A80036; stroke-width: 1.0; stroke-dasharray: 7.0,7.0;"/><rect fill="#DDDDDD" height="90.2717" rx="5" ry="5" style="stroke: #000000; stroke-width: 1.0;" width="365" x="1262" y="1120.5158"/><text fill="#000000" font-family="Arial" font-size="14" font-weight="bold" lengthAdjust="spacingAndGlyphs" textLength="102" x="1272" y="1142.4818">Couleur / ligne</text><text fill="#000000" font-family="Arial" font-size="14" font-weight="bold" lengthAdjust="spacingAndGlyphs" textLength="32" x="1382" y="1142.4818">Sens</text><text fill="#000000" font-family="Arial" font-size="14" lengthAdjust="spacingAndGlyphs" textLength="27" x="1272" y="1161.5497">Vert</text><text fill="#000000" font-family="Arial" font-size="14" lengthAdjust="spacingAndGlyphs" textLength="235" x="1382" y="1161.5497">Systeme documente dans ce depot</text><text fill="#000000" font-family="Arial" font-size="14" lengthAdjust="spacingAndGlyphs" textLength="30" x="1272" y="1180.6176">Bleu</text><text fill="#000000" font-family="Arial" font-size="14" lengthAdjust="spacingAndGlyphs" textLength="95" x="1382" y="1180.6176">Service amont</text><text fill="#000000" font-family="Arial" font-size="14" lengthAdjust="spacingAndGlyphs" textLength="83" x="1272" y="1199.6855">Ligne pleine</text><text fill="#000000" font-family="Arial" font-size="14" lengthAdjust="spacingAndGlyphs" textLength="146" x="1382" y="1199.6855">Interaction principale</text><line style="stroke: #000000; stroke-width: 1.0;" x1="1268" x2="1621" y1="1127.5158" y2="1127.5158"/><line style="stroke: #000000; stroke-width: 1.0;" x1="1268" x2="1621" y1="1146.5838" y2="1146.5838"/><line style="stroke: #000000; stroke-width: 1.0;" x1="1268" x2="1621" y1="1165.6517" y2="1165.6517"/><line style="stroke: #000000; stroke-width: 1.0;" x1="1268" x2="1621" y1="1184.7196" y2="1184.7196"/><line style="stroke: #000000; stroke-width: 1.0;" x1="1268" x2="1621" y1="1203.7875" y2="1203.7875"/><line style="stroke: #000000; stroke-width: 1.0;" x1="1268" x2="1268" y1="1127.5158" y2="1203.7875"/><line style="stroke: #000000; stroke-width: 1.0;" x1="1378" x2="1378" y1="1127.5158" y2="1203.7875"/><line style="stroke: #000000; stroke-width: 1.0;" x1="1621" x2="1621" y1="1127.5158" y2="1203.7875"/><!--MD5=[1674ace9369f7baa602867b42cf1229c]
@startuml contexte-metier-3-1
title Section 3.1 - Contexte metier CanTelcoX API Gateway

left to right direction
skinparam shadowing false
skinparam backgroundColor #FFFFFF
skinparam defaultFontName Arial
skinparam packageStyle rectangle
skinparam rectangle {
  RoundCorner 8
}
skinparam actor {
  BorderColor #2F3A4A
  BackgroundColor #F8FAFC
}
skinparam database {
  BorderColor #475569
  BackgroundColor #F8FAFC
}

actor "Abonnes particuliers\n/ PME" as Subscribers
actor "Operateur\n(exploitation)" as Operator

rectangle "Canaux clients" as ClientChannels #EFF6FF {
  rectangle "Frontend Expo" as Frontend #DBEAFE
}

rectangle "Systeme documente\nCanTelcoX API Gateway" as Gateway #DCFCE7 {
  rectangle "Base URL stable\nHTTP REST /v1" as StableUrl #BBF7D0
  rectangle "Proxy de routage\n/v1/{service}/{path}" as Router #BBF7D0
  rectangle "Diagnostic\n/health et /routes" as Diagnostics #BBF7D0
}

rectangle "Services metier amont\n(hors perimetre du depot gateway)" as Upstream #F8FAFC {
  rectangle "identity-service\nUtilisateurs, auth, MFA" as Identity #E0F2FE
  rectangle "order-service\nCommandes, activations" as Orders #E0F2FE
  rectangle "catalog-service\nCatalogue, offres" as Catalog #E0F2FE
  rectangle "customers-service\nClients" as Customers #E0F2FE
  rectangle "billing-service\nUsage, factures" as Billing #E0F2FE
  rectangle "audit-service\nAudit append-only" as Audit #E0F2FE
}

rectangle "Observabilite" as Observability #F1F5F9 {
  rectangle "Prometheus\nBlackbox Exporter" as Blackbox #E2E8F0
  rectangle "Grafana" as Grafana #E2E8F0
}

Subscribers - -> Frontend : utilise
Frontend - -> Gateway : HTTP REST /v1

Gateway - -> Identity : /v1/users/*\n/v1/auth/*
Gateway - -> Orders : /v1/orders/*
Gateway - -> Catalog : /v1/catalog/*
Gateway - -> Customers : /v1/customers/*
Gateway - -> Billing : /v1/billing/*
Gateway - -> Audit : /v1/audit/*

Operator - -> Diagnostics : consulte /routes
Blackbox - -> Diagnostics : sonde /health
Grafana - -> Blackbox : visualise l'etat

StableUrl -[hidden]- Router
Router -[hidden]- Diagnostics

legend right
  |= Couleur / ligne |= Sens |
  | Vert | Systeme documente dans ce depot |
  | Bleu | Service amont |
  | Ligne pleine | Interaction principale |
endlegend

note bottom of Gateway
Le gateway masque la localisation reelle des services,
fournit une base URL stable au frontend et expose /routes
pour diagnostiquer la configuration effective.
end note

@enduml

PlantUML version 1.2020.02(Sun Mar 01 05:22:07 EST 2020)
(GPL source distribution)
Java Runtime: OpenJDK Runtime Environment
JVM: OpenJDK 64-Bit Server VM
Java Version: 21.0.11+10-1-24.04.2-Ubuntu
Operating System: Linux
Default Encoding: UTF-8
Language: en
Country: null
--></g></svg>