<?xml version="1.0" encoding="UTF-8" standalone="no"?><svg xmlns="http://www.w3.org/2000/svg" xmlns:xlink="http://www.w3.org/1999/xlink" contentScriptType="application/ecmascript" contentStyleType="text/css" height="1305px" preserveAspectRatio="none" style="width:2504px;height:1305px;" version="1.1" viewBox="0 0 2504 1305" width="2504px" zoomAndPan="magnify"><defs/><g><text fill="#000000" font-family="Arial" font-size="18" lengthAdjust="spacingAndGlyphs" textLength="452" x="1025" y="19.2419">Section 3.1 - Contexte metier CanTelcoX API Gateway</text><!--MD5=[5cbbd48225a6a313f6e5bba379f74669]
cluster ClientChannels--><rect fill="#EFF6FF" height="94" rx="4" ry="4" style="stroke: #000000; stroke-width: 1.5;" width="149" x="229" y="256.5158"/><text fill="#000000" font-family="Arial" font-size="14" font-weight="bold" lengthAdjust="spacingAndGlyphs" textLength="100" x="253.5" y="273.4818">Canaux clients</text><!--MD5=[7772a2c0eb0eced9484310deb93e32c2]
cluster Gateway--><rect fill="#DCFCE7" height="166" rx="4" ry="4" style="stroke: #000000; stroke-width: 1.5;" width="1000" x="608.5" y="156.5158"/><text fill="#000000" font-family="Arial" font-size="14" font-weight="bold" lengthAdjust="spacingAndGlyphs" textLength="142" x="1037.5" y="173.4818">Systeme documente</text><text fill="#000000" font-family="Arial" font-size="14" font-weight="bold" lengthAdjust="spacingAndGlyphs" textLength="163" x="1027" y="192.5497">CanTelcoX API Gateway</text><!--MD5=[cebc4953025eb699f5485e442f7506a9]
cluster Upstream--><rect fill="#F8FAFC" height="596" rx="4" ry="4" style="stroke: #000000; stroke-width: 1.5;" width="612" x="1027" y="354.5158"/><text fill="#000000" font-family="Arial" font-size="14" font-weight="bold" lengthAdjust="spacingAndGlyphs" textLength="156" x="1255" y="371.4818">Services metier amont</text><text fill="#000000" font-family="Arial" font-size="14" font-weight="bold" lengthAdjust="spacingAndGlyphs" textLength="244" x="1211" y="390.5497">(hors perimetre du depot gateway)</text><!--MD5=[e25b1192c9738018f4d0ae98e229e4d6]
cluster Free5GC--><rect fill="#FFF7ED" height="166" rx="4" ry="4" style="stroke: #000000; stroke-width: 1.5;" width="638" x="1822" y="700.5158"/><text fill="#000000" font-family="Arial" font-size="14" font-weight="bold" lengthAdjust="spacingAndGlyphs" textLength="113" x="2084.5" y="717.4818">Coeur reseau 5G</text><text fill="#000000" font-family="Arial" font-size="14" font-weight="bold" lengthAdjust="spacingAndGlyphs" textLength="54" x="2114" y="736.5497">free5GC</text><!--MD5=[31ba93973bc7c9d0a17e495fb2f93281]
cluster Observability--><rect fill="#F1F5F9" height="112" rx="4" ry="4" style="stroke: #000000; stroke-width: 1.5;" width="572.5" x="643" y="1039.5158"/><text fill="#000000" font-family="Arial" font-size="14" font-weight="bold" lengthAdjust="spacingAndGlyphs" textLength="92" x="883.25" y="1056.4818">Observabilite</text><!--MD5=[194a92f280a7d2c2f105939ff984a7cf]
entity Frontend--><rect fill="#DBEAFE" height="39.0679" rx="4" ry="4" style="stroke: #000000; stroke-width: 1.5;" width="117" x="245" y="295.0158"/><text fill="#000000" font-family="Arial" font-size="14" lengthAdjust="spacingAndGlyphs" textLength="97" x="255" y="319.9818">Frontend Expo</text><!--MD5=[e06aa0c3ee6beacca3385cf28a72a945]
entity StableUrl--><rect fill="#BBF7D0" height="58.1358" rx="4" ry="4" style="stroke: #000000; stroke-width: 1.5;" width="127" x="632.5" y="221.5158"/><text fill="#000000" font-family="Arial" font-size="14" lengthAdjust="spacingAndGlyphs" textLength="107" x="642.5" y="246.4818">Base URL stable</text><text fill="#000000" font-family="Arial" font-size="14" lengthAdjust="spacingAndGlyphs" textLength="95" x="642.5" y="265.5497">HTTP REST /v1</text><!--MD5=[953a8c67cfe21abaf9bf45dad8506ca8]
entity Router--><rect fill="#BBF7D0" height="58.1358" rx="4" ry="4" style="stroke: #000000; stroke-width: 1.5;" width="148" x="1055.5" y="221.5158"/><text fill="#000000" font-family="Arial" font-size="14" lengthAdjust="spacingAndGlyphs" textLength="114" x="1065.5" y="246.4818">Proxy de routage</text><text fill="#000000" font-family="Arial" font-size="14" lengthAdjust="spacingAndGlyphs" textLength="128" x="1065.5" y="265.5497">/v1/{service}/{path}</text><!--MD5=[bd459546f49a3cecc18a657256c8062b]
entity Diagnostics--><rect fill="#BBF7D0" height="58.1358" rx="4" ry="4" style="stroke: #000000; stroke-width: 1.5;" width="137" x="1447.5" y="221.5158"/><text fill="#000000" font-family="Arial" font-size="14" lengthAdjust="spacingAndGlyphs" textLength="71" x="1457.5" y="246.4818">Diagnostic</text><text fill="#000000" font-family="Arial" font-size="14" lengthAdjust="spacingAndGlyphs" textLength="117" x="1457.5" y="265.5497">/health et /routes</text><!--MD5=[8d41708a2ff900aa7fd7aa9f1d7ea372]
entity Identity--><rect fill="#E0F2FE" height="58.1358" rx="4" ry="4" style="stroke: #000000; stroke-width: 1.5;" width="173" x="1043" y="597.5158"/><text fill="#000000" font-family="Arial" font-size="14" lengthAdjust="spacingAndGlyphs" textLength="103" x="1053" y="622.4818">identity-service</text><text fill="#000000" font-family="Arial" font-size="14" lengthAdjust="spacingAndGlyphs" textLength="153" x="1053" y="641.5497">Utilisateurs, auth, MFA</text><!--MD5=[b6c4ffbd0eb4085aa75110d1e0860a48]
entity Orders--><rect fill="#E0F2FE" height="58.1358" rx="4" ry="4" style="stroke: #000000; stroke-width: 1.5;" width="109" x="1075" y="690.5158"/><text fill="#000000" font-family="Arial" font-size="14" lengthAdjust="spacingAndGlyphs" textLength="89" x="1085" y="715.4818">order-service</text><text fill="#000000" font-family="Arial" font-size="14" lengthAdjust="spacingAndGlyphs" textLength="84" x="1085" y="734.5497">Commandes</text><!--MD5=[d910dbbe84f9e3f017bc8b801a2771ca]
entity Lines--><rect fill="#E0F2FE" height="58.1358" rx="4" ry="4" style="stroke: #000000; stroke-width: 1.5;" width="214" x="1409" y="828.5158"/><text fill="#000000" font-family="Arial" font-size="14" lengthAdjust="spacingAndGlyphs" textLength="77" x="1419" y="853.4818">line-service</text><text fill="#000000" font-family="Arial" font-size="14" lengthAdjust="spacingAndGlyphs" textLength="194" x="1419" y="872.5497">Lignes, SIM/SUPI, activations</text><!--MD5=[215287eedb9f9e2233710674640c5d48]
entity Catalog--><rect fill="#E0F2FE" height="58.1358" rx="4" ry="4" style="stroke: #000000; stroke-width: 1.5;" width="135" x="1062" y="783.5158"/><text fill="#000000" font-family="Arial" font-size="14" lengthAdjust="spacingAndGlyphs" textLength="101" x="1072" y="808.4818">catalog-service</text><text fill="#000000" font-family="Arial" font-size="14" lengthAdjust="spacingAndGlyphs" textLength="115" x="1072" y="827.5497">Catalogue, offres</text><!--MD5=[41e5f0882eeb2ee544322f099364aff0]
entity Customers--><rect fill="#E0F2FE" height="58.1358" rx="4" ry="4" style="stroke: #000000; stroke-width: 1.5;" width="142" x="1058.5" y="876.5158"/><text fill="#000000" font-family="Arial" font-size="14" lengthAdjust="spacingAndGlyphs" textLength="122" x="1068.5" y="901.4818">customers-service</text><text fill="#000000" font-family="Arial" font-size="14" lengthAdjust="spacingAndGlyphs" textLength="46" x="1068.5" y="920.5497">Clients</text><!--MD5=[8a394f96b0ce110dbdfdee486f17d343]
entity Billing--><rect fill="#E0F2FE" height="58.1358" rx="4" ry="4" style="stroke: #000000; stroke-width: 1.5;" width="125" x="1067" y="411.5158"/><text fill="#000000" font-family="Arial" font-size="14" lengthAdjust="spacingAndGlyphs" textLength="95" x="1077" y="436.4818">billing-service</text><text fill="#000000" font-family="Arial" font-size="14" lengthAdjust="spacingAndGlyphs" textLength="105" x="1077" y="455.5497">Usage, factures</text><!--MD5=[99cbb757e0c7a8a66517a3e5acdeef2a]
entity Audit--><rect fill="#E0F2FE" height="58.1358" rx="4" ry="4" style="stroke: #000000; stroke-width: 1.5;" width="145" x="1057" y="504.5158"/><text fill="#000000" font-family="Arial" font-size="14" lengthAdjust="spacingAndGlyphs" textLength="87" x="1067" y="529.4818">audit-service</text><text fill="#000000" font-family="Arial" font-size="14" lengthAdjust="spacingAndGlyphs" textLength="125" x="1067" y="548.5497">Audit append-only</text><!--MD5=[93949f70f9ec051f703dc7d15b4cb1e0]
entity ControlPlane--><rect fill="#FED7AA" height="58.1358" rx="4" ry="4" style="stroke: #000000; stroke-width: 1.5;" width="218" x="1846" y="765.5158"/><text fill="#000000" font-family="Arial" font-size="14" lengthAdjust="spacingAndGlyphs" textLength="91" x="1856" y="790.4818">Control plane</text><text fill="#000000" font-family="Arial" font-size="14" lengthAdjust="spacingAndGlyphs" textLength="198" x="1856" y="809.5497">AMF / SMF / UDM / UDR / NRF</text><!--MD5=[839ee8e7fd369ff2f59025c7306e1246]
entity UserPlane--><rect fill="#FED7AA" height="58.1358" rx="4" ry="4" style="stroke: #000000; stroke-width: 1.5;" width="93" x="2125" y="765.5158"/><text fill="#000000" font-family="Arial" font-size="14" lengthAdjust="spacingAndGlyphs" textLength="73" x="2135" y="790.4818">User plane</text><text fill="#000000" font-family="Arial" font-size="14" lengthAdjust="spacingAndGlyphs" textLength="25" x="2135" y="809.5497">UPF</text><!--MD5=[833ed7f0af0ebb0ce905f480ce960e47]
entity Ueransim--><rect fill="#FED7AA" height="58.1358" rx="4" ry="4" style="stroke: #000000; stroke-width: 1.5;" width="157" x="2279" y="765.5158"/><text fill="#000000" font-family="Arial" font-size="14" lengthAdjust="spacingAndGlyphs" textLength="126" x="2289" y="790.4818">Acces radio simule</text><text fill="#000000" font-family="Arial" font-size="14" lengthAdjust="spacingAndGlyphs" textLength="137" x="2289" y="809.5497">UERANSIM gNB / UE</text><!--MD5=[aaf62909b13b28952145fd9a473d58e8]
entity Blackbox--><rect fill="#E2E8F0" height="58.1358" rx="4" ry="4" style="stroke: #000000; stroke-width: 1.5;" width="140" x="1059.5" y="1077.5158"/><text fill="#000000" font-family="Arial" font-size="14" lengthAdjust="spacingAndGlyphs" textLength="81" x="1069.5" y="1102.4818">Prometheus</text><text fill="#000000" font-family="Arial" font-size="14" lengthAdjust="spacingAndGlyphs" textLength="120" x="1069.5" y="1121.5497">Blackbox Exporter</text><!--MD5=[1e38ee63cc23f89100e14039e3aadfb2]
entity Grafana--><rect fill="#E2E8F0" height="39.0679" rx="4" ry="4" style="stroke: #000000; stroke-width: 1.5;" width="74" x="659" y="1081.0158"/><text fill="#000000" font-family="Arial" font-size="14" lengthAdjust="spacingAndGlyphs" textLength="54" x="669" y="1105.9818">Grafana</text><!--MD5=[e7bc41b35c8c15ce318d0d8e26943c71]
entity Subscribers--><ellipse cx="76" cy="274.0158" fill="#F8FAFC" rx="8" ry="8" style="stroke: #2F3A4A; stroke-width: 1.5;"/><path d="M76,282.0158 L76,309.0158 M63,290.0158 L89,290.0158 M76,309.0158 L63,324.0158 M76,309.0158 L89,324.0158 " fill="none" style="stroke: #2F3A4A; stroke-width: 1.5;"/><text fill="#000000" font-family="Arial" font-size="14" lengthAdjust="spacingAndGlyphs" textLength="140" x="6" y="341.4818">Abonnes particuliers</text><text fill="#000000" font-family="Arial" font-size="14" lengthAdjust="spacingAndGlyphs" textLength="38" x="6" y="360.5497">/ PME</text><!--MD5=[2571bb1592dc874a255a7701a0171bbf]
entity Operator--><ellipse cx="1129.5" cy="42.0158" fill="#F8FAFC" rx="8" ry="8" style="stroke: #2F3A4A; stroke-width: 1.5;"/><path d="M1129.5,50.0158 L1129.5,77.0158 M1116.5,58.0158 L1142.5,58.0158 M1129.5,77.0158 L1116.5,92.0158 M1129.5,77.0158 L1142.5,92.0158 " fill="none" style="stroke: #2F3A4A; stroke-width: 1.5;"/><text fill="#000000" font-family="Arial" font-size="14" lengthAdjust="spacingAndGlyphs" textLength="70" x="1086" y="109.4818">Operateur</text><text fill="#000000" font-family="Arial" font-size="14" lengthAdjust="spacingAndGlyphs" textLength="87" x="1086" y="128.5497">(exploitation)</text><path d="M512,69.0158 L512,132.1339 L880,132.1339 L880,79.0158 L870,69.0158 L512,69.0158 " fill="#FBFB77" style="stroke: #A80036; stroke-width: 1.0;"/><path d="M870,69.0158 L870,79.0158 L880,79.0158 L870,69.0158 " fill="#FBFB77" style="stroke: #A80036; stroke-width: 1.0;"/><text fill="#000000" font-family="Arial" font-size="13" lengthAdjust="spacingAndGlyphs" textLength="314" x="518" y="87.9129">Le gateway masque la localisation reelle des services,</text><text fill="#000000" font-family="Arial" font-size="13" lengthAdjust="spacingAndGlyphs" textLength="347" x="518" y="105.6189">fournit une base URL stable au frontend et expose /routes</text><text fill="#000000" font-family="Arial" font-size="13" lengthAdjust="spacingAndGlyphs" textLength="269" x="518" y="123.3249">pour diagnostiquer la configuration effective.</text><!--MD5=[d2ddc4b1f6b3be563ff0174f620742b2]
link Subscribers to Frontend--><path d="M146.19,314.5158 C175.93,314.5158 210.45,314.5158 239.47,314.5158 " fill="none" id="Subscribers-&gt;Frontend" style="stroke: #A80036; stroke-width: 1.0;"/><polygon fill="#A80036" points="244.82,314.5158,235.82,310.5158,239.82,314.5158,235.82,318.5158,244.82,314.5158" style="stroke: #A80036; stroke-width: 1.0;"/><text fill="#000000" font-family="Arial" font-size="13" lengthAdjust="spacingAndGlyphs" textLength="35" x="177" y="310.4129">utilise</text><!--MD5=[c6dd312302da65f7b863fd53be257957]
link Frontend to Gateway--><path d="M362.12,314.5158 C415.585,314.5158 497.06,314.5158 566.0213,314.5158 C574.6414,314.5158 583.066,314.5158 591.216,314.5158 C595.291,314.5158 599.2973,314.5158 603.225,314.5158 C604.207,314.5158 605.184,314.5158 606.1559,314.5158 C606.6419,314.5158 607.1266,314.5158 607.6101,314.5158 " fill="none" id="Frontend-&gt;Gateway" style="stroke: #A80036; stroke-width: 1.0;"/><polygon fill="#A80036" points="607.6101,314.5158,598.6101,310.5158,602.6101,314.5158,598.6101,318.5158,607.6101,314.5158" style="stroke: #A80036; stroke-width: 1.0;"/><text fill="#000000" font-family="Arial" font-size="13" lengthAdjust="spacingAndGlyphs" textLength="86" x="395" y="310.4129">HTTP REST /v1</text><!--MD5=[58905e6d178b804c83d697972484aaff]
link Gateway to Identity--><path d="M703.3578,322.6316 C703.575,322.9052 703.7975,323.1851 704.0252,323.4712 C704.4807,324.0436 704.9571,324.641 705.4541,325.2627 C706.4481,326.5061 707.5245,327.8468 708.6805,329.2791 C710.9924,332.1439 713.6224,335.3752 716.5478,338.9279 C728.2494,353.1387 744.6763,372.4915 764.3675,394.0921 C803.75,437.2933 856.19,489.4858 910,527.5158 C953.83,558.4958 970.11,557.3658 1019,579.5158 C1030.56,584.7558 1042.87,590.1758 1054.91,595.4058 " fill="none" id="Gateway-&gt;Identity" style="stroke: #A80036; stroke-width: 1.0;"/><polygon fill="#A80036" points="1059.68,597.4758,1053.0105,590.2289,1055.0917,595.489,1049.8316,597.5702,1059.68,597.4758" style="stroke: #A80036; stroke-width: 1.0;"/><text fill="#000000" font-family="Arial" font-size="13" lengthAdjust="spacingAndGlyphs" textLength="68" x="926.5" y="505.4129">/v1/users/*</text><text fill="#000000" font-family="Arial" font-size="13" lengthAdjust="spacingAndGlyphs" textLength="64" x="928.5" y="523.1189">/v1/auth/*</text><!--MD5=[85465f3c61b1fbd0afcccb29e71a7817]
link Gateway to Orders--><path d="M701.5109,322.7365 C701.6003,322.8971 701.691,323.0598 701.7829,323.2248 C701.9668,323.5547 702.1558,323.8933 702.3499,324.2405 C705.4553,329.7955 709.8591,337.5512 715.42,347.0383 C726.5419,366.0127 742.2925,391.9133 761.5425,420.9883 C800.0425,479.1383 852.54,549.9858 910,603.5158 C956.64,646.9658 1022.63,679.0158 1069.87,698.2858 " fill="none" id="Gateway-&gt;Orders" style="stroke: #A80036; stroke-width: 1.0;"/><polygon fill="#A80036" points="1074.66,700.2258,1067.8156,693.1439,1070.0246,698.3516,1064.8168,700.5606,1074.66,700.2258" style="stroke: #A80036; stroke-width: 1.0;"/><text fill="#000000" font-family="Arial" font-size="13" lengthAdjust="spacingAndGlyphs" textLength="75" x="923" y="599.4129">/v1/orders/*</text><!--MD5=[c4ca877d6ceb43cec17d216c07a3c00e]
link Gateway to Lines--><path d="M697.4126,322.9157 C697.429,323.2034 697.446,323.4981 697.4637,323.7998 C697.4989,324.4032 697.5366,325.0344 697.5767,325.6932 C697.657,327.0106 697.7472,328.4379 697.8485,329.9714 C698.0511,333.0385 698.2976,336.5305 698.5961,340.4189 C699.7898,355.9724 701.8136,377.8675 705.1728,404.271 C711.8912,457.078 723.9513,527.919 745.395,602.1296 C788.2825,750.5508 868.705,912.4508 1019,970.5158 C1174.55,1030.6158 1370.46,940.5858 1462.58,889.1958 " fill="none" id="Gateway-&gt;Lines" style="stroke: #A80036; stroke-width: 1.0;"/><polygon fill="#A80036" points="1467.16,886.6258,1457.3535,887.5381,1462.7987,889.071,1461.2658,894.5162,1467.16,886.6258" style="stroke: #A80036; stroke-width: 1.0;"/><text fill="#000000" font-family="Arial" font-size="13" lengthAdjust="spacingAndGlyphs" textLength="63" x="1098" y="966.4129">/v1/lines/*</text><!--MD5=[fb18a61cc3cdfe6eeb9153d19eeb2150]
link Gateway to Catalog--><path d="M699.7315,322.6643 C699.8611,323.0418 699.9952,323.4316 700.1338,323.8336 C700.4111,324.6377 700.7066,325.4904 701.0202,326.3907 C703.5288,333.5925 707.1958,343.8319 711.9803,356.4512 C721.5494,381.6896 735.5888,416.4471 753.7725,455.4608 C790.14,533.4883 843.085,628.5408 910,698.5158 C950.53,740.8958 1010.28,770.5658 1057.06,788.9958 " fill="none" id="Gateway-&gt;Catalog" style="stroke: #A80036; stroke-width: 1.0;"/><polygon fill="#A80036" points="1061.83,790.8558,1054.8959,783.8617,1057.1711,789.0409,1051.9919,791.316,1061.83,790.8558" style="stroke: #A80036; stroke-width: 1.0;"/><text fill="#000000" font-family="Arial" font-size="13" lengthAdjust="spacingAndGlyphs" textLength="80" x="920.5" y="694.4129">/v1/catalog/*</text><!--MD5=[a0e6cef70b966495b0807435f563b86d]
link Gateway to Customers--><path d="M698.6609,322.746 C698.7057,322.9599 698.7514,323.1778 698.798,323.3996 C699.1708,325.1742 699.6028,327.2003 700.0953,329.4651 C702.0653,338.5242 705.0024,351.401 708.9836,367.2605 C716.9459,398.9796 729.0844,442.6296 746.0138,491.5308 C779.8725,589.3333 832.895,708.1408 910,794.5158 C948.21,837.3258 1006.81,865.8358 1053.7,883.2358 " fill="none" id="Gateway-&gt;Customers" style="stroke: #A80036; stroke-width: 1.0;"/><polygon fill="#A80036" points="1058.49,884.9858,1051.4306,878.1181,1053.799,883.2553,1048.6618,885.6237,1058.49,884.9858" style="stroke: #A80036; stroke-width: 1.0;"/><text fill="#000000" font-family="Arial" font-size="13" lengthAdjust="spacingAndGlyphs" textLength="99" x="911" y="790.4129">/v1/customers/*</text><!--MD5=[fdb09f818269fe0843ce25fd65df4de8]
link Gateway to Billing--><path d="M725.2044,322.7525 C725.5343,322.8489 725.8667,322.9459 726.2016,323.0437 C727.5411,323.435 728.9204,323.8378 730.338,324.2519 C733.1733,325.0799 736.1622,325.9528 739.2938,326.8674 C764.3463,334.184 798.5325,344.1671 836.31,355.1983 C911.865,377.2608 1001.785,403.5158 1061.73,421.0158 " fill="none" id="Gateway-&gt;Billing" style="stroke: #A80036; stroke-width: 1.0;"/><polygon fill="#A80036" points="1066.64,422.4558,1059.12,416.0958,1061.84,421.0558,1056.88,423.7758,1066.64,422.4558" style="stroke: #A80036; stroke-width: 1.0;"/><text fill="#000000" font-family="Arial" font-size="13" lengthAdjust="spacingAndGlyphs" textLength="72" x="924.5" y="373.4129">/v1/billing/*</text><!--MD5=[3655548885055f1bc7c14031652b762f]
link Gateway to Audit--><path d="M711.101,322.7104 C712.7475,323.6624 714.5272,324.6898 716.4341,325.7887 C720.2479,327.9865 724.5705,330.4702 729.3547,333.2079 C748.4913,344.1587 775.0113,359.174 805.88,376.2171 C867.6175,410.3033 946.75,452.5008 1019,486.5158 C1030.24,491.8058 1042.22,497.1958 1053.99,502.3558 " fill="none" id="Gateway-&gt;Audit" style="stroke: #A80036; stroke-width: 1.0;"/><polygon fill="#A80036" points="1058.67,504.3958,1052.0279,497.1238,1054.0892,502.3918,1048.8213,504.4531,1058.67,504.3958" style="stroke: #A80036; stroke-width: 1.0;"/><text fill="#000000" font-family="Arial" font-size="13" lengthAdjust="spacingAndGlyphs" textLength="67" x="927" y="429.4129">/v1/audit/*</text><!--MD5=[4c3d29841050f29b63d9d4a9466edcc3]
link Orders to Lines--><path d="M1184.37,738.8458 C1247.87,761.6458 1354.23,799.8158 1429.13,826.6958 " fill="none" id="Orders-&gt;Lines" style="stroke: #A80036; stroke-width: 1.0;"/><polygon fill="#A80036" points="1434.02,828.4558,1426.9172,821.6331,1429.3181,826.7552,1424.1961,829.1561,1434.02,828.4558" style="stroke: #A80036; stroke-width: 1.0;"/><text fill="#000000" font-family="Arial" font-size="13" lengthAdjust="spacingAndGlyphs" textLength="119" x="1253" y="742.4129">demande activation</text><text fill="#000000" font-family="Arial" font-size="13" lengthAdjust="spacingAndGlyphs" textLength="131" x="1247" y="760.1189">commande confirmee</text><!--MD5=[558bd87504de765edf48099caeb6e4b3]
link Lines to Free5GC--><path d="M1623.06,857.7558 C1654.8925,857.8283 1691.1,857.9115 1727.6013,857.9955 C1745.8519,858.0376 1764.1759,858.0798 1782.0633,858.1211 C1791.007,858.1418 1799.8414,858.1622 1808.503,858.1822 C1812.8338,858.1922 1817.1213,858.2021 1821.3576,858.2119 " fill="none" id="Lines-&gt;Free5GC" style="stroke: #A80036; stroke-width: 1.0;"/><polygon fill="#A80036" points="1821.3576,858.2119,1812.3669,854.1911,1816.3576,858.2003,1812.3484,862.1911,1821.3576,858.2119" style="stroke: #A80036; stroke-width: 1.0;"/><text fill="#000000" font-family="Arial" font-size="13" lengthAdjust="spacingAndGlyphs" textLength="91" x="1681" y="836.4129">activation ligne</text><text fill="#000000" font-family="Arial" font-size="13" lengthAdjust="spacingAndGlyphs" textLength="141" x="1656" y="854.1189">provisioning SIM / SUPI</text><!--MD5=[170c94471268c5454d26b77580750d97]
link Free5GC to Lines--><path d="M1932.8081,866.6972 C1932.1497,866.9407 1931.4784,867.188 1930.7946,867.4391 C1928.0593,868.4433 1925.1235,869.5067 1922.0099,870.6152 C1915.7826,872.8322 1908.8441,875.2299 1901.3762,877.6971 C1871.505,887.5658 1833.165,898.5458 1798,903.5158 C1735.07,912.4158 1717.73,913.6958 1655,903.5158 C1635.01,900.2758 1614,894.5458 1594.57,888.2058 " fill="none" id="Free5GC-&gt;Lines" style="stroke: #A80036; stroke-width: 1.0;"/><polygon fill="#A80036" points="1589.66,886.5858,1596.9452,893.2135,1594.4063,888.1584,1599.4613,885.6194,1589.66,886.5858" style="stroke: #A80036; stroke-width: 1.0;"/><text fill="#000000" font-family="Arial" font-size="13" lengthAdjust="spacingAndGlyphs" textLength="83" x="1685" y="881.4129">statut session</text><text fill="#000000" font-family="Arial" font-size="13" lengthAdjust="spacingAndGlyphs" textLength="67" x="1693" y="899.1189">etat reseau</text><!--MD5=[13bc9bd39f09a94930616b18623284c0]
link ControlPlane to UserPlane--><!--MD5=[ad7dabec823e2778367efec6a2825aeb]
link UserPlane to Ueransim--><!--MD5=[4fd615d31b0414b5b5f73db857da30a0]
link Operator to Diagnostics--><path d="M1173.12,101.1358 C1238.49,129.6958 1364.27,184.6558 1443.69,219.3558 " fill="none" id="Operator-&gt;Diagnostics" style="stroke: #A80036; stroke-width: 1.0;"/><polygon fill="#A80036" points="1448.38,221.4058,1441.7379,214.1338,1443.7992,219.4018,1438.5313,221.4631,1448.38,221.4058" style="stroke: #A80036; stroke-width: 1.0;"/><text fill="#000000" font-family="Arial" font-size="13" lengthAdjust="spacingAndGlyphs" textLength="98" x="1263.5" y="133.4129">consulte /routes</text><!--MD5=[033ef862cd5ae5eef7a394d824df65d9]
link Blackbox to Diagnostics--><path d="M1199.67,1088.7558 C1258.31,1069.7358 1339.05,1033.2858 1379,969.5158 C1446.8,861.2658 1366.19,515.8558 1409,395.5158 C1424.34,352.3958 1456.94,311.0558 1481.96,283.6258 " fill="none" id="Blackbox-&gt;Diagnostics" style="stroke: #A80036; stroke-width: 1.0;"/><polygon fill="#A80036" points="1485.59,279.6858,1476.5482,283.5903,1482.2004,283.3615,1482.4292,289.0137,1485.59,279.6858" style="stroke: #A80036; stroke-width: 1.0;"/><text fill="#000000" font-family="Arial" font-size="13" lengthAdjust="spacingAndGlyphs" textLength="83" x="1271" y="965.4129">sonde /health</text><!--MD5=[908f4b7927468193a6207885f8bbf57f]
link Grafana to Blackbox--><path d="M733.05,1101.0158 C803.42,1101.9958 960.38,1104.1758 1054.01,1105.4758 " fill="none" id="Grafana-&gt;Blackbox" style="stroke: #A80036; stroke-width: 1.0;"/><polygon fill="#A80036" points="1059.25,1105.5558,1050.3081,1101.4277,1054.2505,1105.4844,1050.1938,1109.4269,1059.25,1105.5558" style="stroke: #A80036; stroke-width: 1.0;"/><text fill="#000000" font-family="Arial" font-size="13" lengthAdjust="spacingAndGlyphs" textLength="83" x="919" y="1099.4129">visualise l'etat</text><!--MD5=[3f19db5148a6a77ecc9141aecd53691e]
link StableUrl to Router--><!--MD5=[5c0d5ae1dc43a567c647253e0765a7c5]
link Router to Diagnostics--><!--MD5=[7ab9645eefa998a2663e4bd38c16a455]
link Gateway to GMN44--><path d="M659.8855,322.5374 C659.2954,322.6432 658.6996,322.7488 658.0984,322.8542 C656.896,323.0651 655.6717,323.2751 654.4266,323.4837 C651.9363,323.9008 649.3626,324.312 646.7137,324.7119 C641.4158,325.5117 635.8167,326.2665 629.9814,326.9336 C618.3109,328.2679 605.6956,329.2515 592.655,329.5433 C540.4925,330.7108 481.525,320.8108 449,278.0158 C399.95,213.4858 498.53,162.5258 585.33,132.0558 " fill="none" id="Gateway-GMN44" style="stroke: #A80036; stroke-width: 1.0; stroke-dasharray: 7.0,7.0;"/><rect fill="#DDDDDD" height="109.3396" rx="5" ry="5" style="stroke: #000000; stroke-width: 1.0;" width="365" x="2128" y="1185.5158"/><text fill="#000000" font-family="Arial" font-size="14" font-weight="bold" lengthAdjust="spacingAndGlyphs" textLength="102" x="2138" y="1207.4818">Couleur / ligne</text><text fill="#000000" font-family="Arial" font-size="14" font-weight="bold" lengthAdjust="spacingAndGlyphs" textLength="32" x="2248" y="1207.4818">Sens</text><text fill="#000000" font-family="Arial" font-size="14" lengthAdjust="spacingAndGlyphs" textLength="27" x="2138" y="1226.5497">Vert</text><text fill="#000000" font-family="Arial" font-size="14" lengthAdjust="spacingAndGlyphs" textLength="235" x="2248" y="1226.5497">Systeme documente dans ce depot</text><text fill="#000000" font-family="Arial" font-size="14" lengthAdjust="spacingAndGlyphs" textLength="30" x="2138" y="1245.6176">Bleu</text><text fill="#000000" font-family="Arial" font-size="14" lengthAdjust="spacingAndGlyphs" textLength="95" x="2248" y="1245.6176">Service amont</text><text fill="#000000" font-family="Arial" font-size="14" lengthAdjust="spacingAndGlyphs" textLength="51" x="2138" y="1264.6855">Orange</text><text fill="#000000" font-family="Arial" font-size="14" lengthAdjust="spacingAndGlyphs" textLength="165" x="2248" y="1264.6855">Coeur reseau 5G integre</text><text fill="#000000" font-family="Arial" font-size="14" lengthAdjust="spacingAndGlyphs" textLength="83" x="2138" y="1283.7534">Ligne pleine</text><text fill="#000000" font-family="Arial" font-size="14" lengthAdjust="spacingAndGlyphs" textLength="146" x="2248" y="1283.7534">Interaction principale</text><line style="stroke: #000000; stroke-width: 1.0;" x1="2134" x2="2487" y1="1192.5158" y2="1192.5158"/><line style="stroke: #000000; stroke-width: 1.0;" x1="2134" x2="2487" y1="1211.5838" y2="1211.5838"/><line style="stroke: #000000; stroke-width: 1.0;" x1="2134" x2="2487" y1="1230.6517" y2="1230.6517"/><line style="stroke: #000000; stroke-width: 1.0;" x1="2134" x2="2487" y1="1249.7196" y2="1249.7196"/><line style="stroke: #000000; stroke-width: 1.0;" x1="2134" x2="2487" y1="1268.7875" y2="1268.7875"/><line style="stroke: #000000; stroke-width: 1.0;" x1="2134" x2="2487" y1="1287.8554" y2="1287.8554"/><line style="stroke: #000000; stroke-width: 1.0;" x1="2134" x2="2134" y1="1192.5158" y2="1287.8554"/><line style="stroke: #000000; stroke-width: 1.0;" x1="2244" x2="2244" y1="1192.5158" y2="1287.8554"/><line style="stroke: #000000; stroke-width: 1.0;" x1="2487" x2="2487" y1="1192.5158" y2="1287.8554"/><!--MD5=[3f596189619a892346b3ddcd81730520]
@startuml contexte-metier-3-1
title Section 3.1 - Contexte metier CanTelcoX API Gateway

left to right direction
skinparam shadowing false
skinparam backgroundColor #FFFFFF
skinparam defaultFontName Arial
skinparam packageStyle rectangle
skinparam rectangle {
  RoundCorner 8
}
skinparam actor {
  BorderColor #2F3A4A
  BackgroundColor #F8FAFC
}
skinparam database {
  BorderColor #475569
  BackgroundColor #F8FAFC
}

actor "Abonnes particuliers\n/ PME" as Subscribers
actor "Operateur\n(exploitation)" as Operator

rectangle "Canaux clients" as ClientChannels #EFF6FF {
  rectangle "Frontend Expo" as Frontend #DBEAFE
}

rectangle "Systeme documente\nCanTelcoX API Gateway" as Gateway #DCFCE7 {
  rectangle "Base URL stable\nHTTP REST /v1" as StableUrl #BBF7D0
  rectangle "Proxy de routage\n/v1/{service}/{path}" as Router #BBF7D0
  rectangle "Diagnostic\n/health et /routes" as Diagnostics #BBF7D0
}

rectangle "Services metier amont\n(hors perimetre du depot gateway)" as Upstream #F8FAFC {
  rectangle "identity-service\nUtilisateurs, auth, MFA" as Identity #E0F2FE
  rectangle "order-service\nCommandes" as Orders #E0F2FE
  rectangle "line-service\nLignes, SIM/SUPI, activations" as Lines #E0F2FE
  rectangle "catalog-service\nCatalogue, offres" as Catalog #E0F2FE
  rectangle "customers-service\nClients" as Customers #E0F2FE
  rectangle "billing-service\nUsage, factures" as Billing #E0F2FE
  rectangle "audit-service\nAudit append-only" as Audit #E0F2FE
}

rectangle "Coeur reseau 5G\nfree5GC" as Free5GC #FFF7ED {
  rectangle "Control plane\nAMF / SMF / UDM / UDR / NRF" as ControlPlane #FED7AA
  rectangle "User plane\nUPF" as UserPlane #FED7AA
  rectangle "Acces radio simule\nUERANSIM gNB / UE" as Ueransim #FED7AA
}

rectangle "Observabilite" as Observability #F1F5F9 {
  rectangle "Prometheus\nBlackbox Exporter" as Blackbox #E2E8F0
  rectangle "Grafana" as Grafana #E2E8F0
}

Subscribers - -> Frontend : utilise
Frontend - -> Gateway : HTTP REST /v1

Gateway - -> Identity : /v1/users/*\n/v1/auth/*
Gateway - -> Orders : /v1/orders/*
Gateway - -> Lines : /v1/lines/*
Gateway - -> Catalog : /v1/catalog/*
Gateway - -> Customers : /v1/customers/*
Gateway - -> Billing : /v1/billing/*
Gateway - -> Audit : /v1/audit/*

Orders - -> Lines : demande activation\ncommande confirmee
Lines - -> Free5GC : activation ligne\nprovisioning SIM / SUPI
Free5GC - -> Lines : statut session\netat reseau
ControlPlane -[hidden]- UserPlane
UserPlane -[hidden]- Ueransim

Operator - -> Diagnostics : consulte /routes
Blackbox - -> Diagnostics : sonde /health
Grafana - -> Blackbox : visualise l'etat

StableUrl -[hidden]- Router
Router -[hidden]- Diagnostics

legend right
  |= Couleur / ligne |= Sens |
  | Vert | Systeme documente dans ce depot |
  | Bleu | Service amont |
  | Orange | Coeur reseau 5G integre |
  | Ligne pleine | Interaction principale |
endlegend

note bottom of Gateway
Le gateway masque la localisation reelle des services,
fournit une base URL stable au frontend et expose /routes
pour diagnostiquer la configuration effective.
end note

@enduml

PlantUML version 1.2020.02(Sun Mar 01 05:22:07 EST 2020)
(GPL source distribution)
Java Runtime: OpenJDK Runtime Environment
JVM: OpenJDK 64-Bit Server VM
Java Version: 21.0.11+10-1-24.04.2-Ubuntu
Operating System: Linux
Default Encoding: UTF-8
Language: en
Country: null
--></g></svg>