<?xml version="1.0" encoding="UTF-8" standalone="no"?><svg xmlns="http://www.w3.org/2000/svg" xmlns:xlink="http://www.w3.org/1999/xlink" contentScriptType="application/ecmascript" contentStyleType="text/css" height="1501px" preserveAspectRatio="none" style="width:1156px;height:1501px;" version="1.1" viewBox="0 0 1156 1501" width="1156px" zoomAndPan="magnify"><defs/><g><text fill="#000000" font-family="Arial" font-size="18" lengthAdjust="spacingAndGlyphs" textLength="440" x="356.5" y="29.2419">Scenario 6.1 - Parcours E2E CanTelcoX (cas nominal)</text><rect fill="#F8FAFC" height="158.5301" style="stroke: #CBD5E1; stroke-width: 1.0;" width="10" x="226.5" y="174.9958"/><rect fill="#F8FAFC" height="95.118" style="stroke: #CBD5E1; stroke-width: 1.0;" width="10" x="226.5" y="365.2319"/><rect fill="#F8FAFC" height="158.5301" style="stroke: #CBD5E1; stroke-width: 1.0;" width="10" x="226.5" y="509.762"/><rect fill="#F8FAFC" height="95.118" style="stroke: #CBD5E1; stroke-width: 1.0;" width="10" x="226.5" y="699.9981"/><rect fill="#F8FAFC" height="366.4722" style="stroke: #CBD5E1; stroke-width: 1.0;" width="10" x="226.5" y="844.5282"/><rect fill="#F8FAFC" height="95.118" style="stroke: #CBD5E1; stroke-width: 1.0;" width="10" x="226.5" y="1242.7064"/><rect fill="#F8FAFC" height="95.118" style="stroke: #CBD5E1; stroke-width: 1.0;" width="10" x="432.5" y="206.7018"/><rect fill="#F8FAFC" height="31.706" style="stroke: #CBD5E1; stroke-width: 1.0;" width="10" x="432.5" y="396.9379"/><rect fill="#F8FAFC" height="95.118" style="stroke: #CBD5E1; stroke-width: 1.0;" width="10" x="432.5" y="541.468"/><rect fill="#F8FAFC" height="31.706" style="stroke: #CBD5E1; stroke-width: 1.0;" width="10" x="432.5" y="989.0582"/><rect fill="#F8FAFC" height="31.706" style="stroke: #CBD5E1; stroke-width: 1.0;" width="10" x="558.5" y="731.7041"/><rect fill="#F8FAFC" height="31.706" style="stroke: #CBD5E1; stroke-width: 1.0;" width="10" x="558.5" y="925.6462"/><rect fill="#F8FAFC" height="285.3541" style="stroke: #CBD5E1; stroke-width: 1.0;" width="10" x="763.5" y="893.9402"/><rect fill="#F8FAFC" height="31.706" style="stroke: #CBD5E1; stroke-width: 1.0;" width="10" x="974.5" y="1052.4703"/><rect fill="#F8FAFC" height="31.706" style="stroke: #CBD5E1; stroke-width: 1.0;" width="10" x="974.5" y="1274.4124"/><rect fill="#F8FAFC" height="31.706" style="stroke: #CBD5E1; stroke-width: 1.0;" width="10" x="1089.5" y="238.4078"/><rect fill="#F8FAFC" height="31.706" style="stroke: #CBD5E1; stroke-width: 1.0;" width="10" x="1089.5" y="573.174"/><rect fill="#F8FAFC" height="31.706" style="stroke: #CBD5E1; stroke-width: 1.0;" width="10" x="1089.5" y="1115.8823"/><line style="stroke: #CBD5E1; stroke-width: 1.0; stroke-dasharray: 5.0,5.0;" x1="30" x2="30" y1="123.5838" y2="1411.2365"/><line style="stroke: #CBD5E1; stroke-width: 1.0; stroke-dasharray: 5.0,5.0;" x1="231" x2="231" y1="123.5838" y2="1411.2365"/><line style="stroke: #CBD5E1; stroke-width: 1.0; stroke-dasharray: 5.0,5.0;" x1="437" x2="437" y1="123.5838" y2="1411.2365"/><line style="stroke: #CBD5E1; stroke-width: 1.0; stroke-dasharray: 5.0,5.0;" x1="563" x2="563" y1="123.5838" y2="1411.2365"/><line style="stroke: #CBD5E1; stroke-width: 1.0; stroke-dasharray: 5.0,5.0;" x1="768" x2="768" y1="123.5838" y2="1411.2365"/><line style="stroke: #CBD5E1; stroke-width: 1.0; stroke-dasharray: 5.0,5.0;" x1="979" x2="979" y1="123.5838" y2="1411.2365"/><line style="stroke: #CBD5E1; stroke-width: 1.0; stroke-dasharray: 5.0,5.0;" x1="1094" x2="1094" y1="123.5838" y2="1411.2365"/><text fill="#000000" font-family="Arial" font-size="14" lengthAdjust="spacingAndGlyphs" textLength="39" x="8" y="119.4818">Client</text><ellipse cx="30.5" cy="51.5158" fill="#F8FAFC" rx="8" ry="8" style="stroke: #2F3A4A; stroke-width: 2.0;"/><path d="M30.5,59.5158 L30.5,86.5158 M17.5,67.5158 L43.5,67.5158 M30.5,86.5158 L17.5,101.5158 M30.5,86.5158 L43.5,101.5158 " fill="none" style="stroke: #2F3A4A; stroke-width: 2.0;"/><text fill="#000000" font-family="Arial" font-size="14" lengthAdjust="spacingAndGlyphs" textLength="39" x="8" y="1425.2024">Client</text><ellipse cx="30.5" cy="1439.3044" fill="#F8FAFC" rx="8" ry="8" style="stroke: #2F3A4A; stroke-width: 2.0;"/><path d="M30.5,1447.3044 L30.5,1474.3044 M17.5,1455.3044 L43.5,1455.3044 M30.5,1474.3044 L17.5,1489.3044 M30.5,1474.3044 L43.5,1489.3044 " fill="none" style="stroke: #2F3A4A; stroke-width: 2.0;"/><rect fill="#DBEAFE" height="52.1358" style="stroke: #1E3A5F; stroke-width: 1.5;" width="97" x="183" y="70.4479"/><text fill="#000000" font-family="Arial" font-size="14" lengthAdjust="spacingAndGlyphs" textLength="83" x="190" y="92.4139">API Gateway</text><text fill="#000000" font-family="Arial" font-size="14" lengthAdjust="spacingAndGlyphs" textLength="49" x="207" y="111.4818">FastAPI</text><rect fill="#DBEAFE" height="52.1358" style="stroke: #1E3A5F; stroke-width: 1.5;" width="97" x="183" y="1410.2365"/><text fill="#000000" font-family="Arial" font-size="14" lengthAdjust="spacingAndGlyphs" textLength="83" x="190" y="1432.2024">API Gateway</text><text fill="#000000" font-family="Arial" font-size="14" lengthAdjust="spacingAndGlyphs" textLength="49" x="207" y="1451.2703">FastAPI</text><rect fill="#DBEAFE" height="33.0679" style="stroke: #1E3A5F; stroke-width: 1.5;" width="117" x="379" y="89.5158"/><text fill="#000000" font-family="Arial" font-size="14" lengthAdjust="spacingAndGlyphs" textLength="103" x="386" y="111.4818">identity-service</text><rect fill="#DBEAFE" height="33.0679" style="stroke: #1E3A5F; stroke-width: 1.5;" width="117" x="379" y="1410.2365"/><text fill="#000000" font-family="Arial" font-size="14" lengthAdjust="spacingAndGlyphs" textLength="103" x="386" y="1432.2024">identity-service</text><rect fill="#DBEAFE" height="33.0679" style="stroke: #1E3A5F; stroke-width: 1.5;" width="115" x="506" y="89.5158"/><text fill="#000000" font-family="Arial" font-size="14" lengthAdjust="spacingAndGlyphs" textLength="101" x="513" y="111.4818">catalog-service</text><rect fill="#DBEAFE" height="33.0679" style="stroke: #1E3A5F; stroke-width: 1.5;" width="115" x="506" y="1410.2365"/><text fill="#000000" font-family="Arial" font-size="14" lengthAdjust="spacingAndGlyphs" textLength="101" x="513" y="1432.2024">catalog-service</text><rect fill="#DBEAFE" height="33.0679" style="stroke: #1E3A5F; stroke-width: 1.5;" width="103" x="717" y="89.5158"/><text fill="#000000" font-family="Arial" font-size="14" lengthAdjust="spacingAndGlyphs" textLength="89" x="724" y="111.4818">order-service</text><rect fill="#DBEAFE" height="33.0679" style="stroke: #1E3A5F; stroke-width: 1.5;" width="103" x="717" y="1410.2365"/><text fill="#000000" font-family="Arial" font-size="14" lengthAdjust="spacingAndGlyphs" textLength="89" x="724" y="1432.2024">order-service</text><rect fill="#DBEAFE" height="33.0679" style="stroke: #1E3A5F; stroke-width: 1.5;" width="109" x="925" y="89.5158"/><text fill="#000000" font-family="Arial" font-size="14" lengthAdjust="spacingAndGlyphs" textLength="95" x="932" y="111.4818">billing-service</text><rect fill="#DBEAFE" height="33.0679" style="stroke: #1E3A5F; stroke-width: 1.5;" width="109" x="925" y="1410.2365"/><text fill="#000000" font-family="Arial" font-size="14" lengthAdjust="spacingAndGlyphs" textLength="95" x="932" y="1432.2024">billing-service</text><rect fill="#DBEAFE" height="33.0679" style="stroke: #1E3A5F; stroke-width: 1.5;" width="101" x="1044" y="89.5158"/><text fill="#000000" font-family="Arial" font-size="14" lengthAdjust="spacingAndGlyphs" textLength="87" x="1051" y="111.4818">audit-service</text><rect fill="#DBEAFE" height="33.0679" style="stroke: #1E3A5F; stroke-width: 1.5;" width="101" x="1044" y="1410.2365"/><text fill="#000000" font-family="Arial" font-size="14" lengthAdjust="spacingAndGlyphs" textLength="87" x="1051" y="1432.2024">audit-service</text><rect fill="#F8FAFC" height="158.5301" style="stroke: #CBD5E1; stroke-width: 1.0;" width="10" x="226.5" y="174.9958"/><rect fill="#F8FAFC" height="95.118" style="stroke: #CBD5E1; stroke-width: 1.0;" width="10" x="226.5" y="365.2319"/><rect fill="#F8FAFC" height="158.5301" style="stroke: #CBD5E1; stroke-width: 1.0;" width="10" x="226.5" y="509.762"/><rect fill="#F8FAFC" height="95.118" style="stroke: #CBD5E1; stroke-width: 1.0;" width="10" x="226.5" y="699.9981"/><rect fill="#F8FAFC" height="366.4722" style="stroke: #CBD5E1; stroke-width: 1.0;" width="10" x="226.5" y="844.5282"/><rect fill="#F8FAFC" height="95.118" style="stroke: #CBD5E1; stroke-width: 1.0;" width="10" x="226.5" y="1242.7064"/><rect fill="#F8FAFC" height="95.118" style="stroke: #CBD5E1; stroke-width: 1.0;" width="10" x="432.5" y="206.7018"/><rect fill="#F8FAFC" height="31.706" style="stroke: #CBD5E1; stroke-width: 1.0;" width="10" x="432.5" y="396.9379"/><rect fill="#F8FAFC" height="95.118" style="stroke: #CBD5E1; stroke-width: 1.0;" width="10" x="432.5" y="541.468"/><rect fill="#F8FAFC" height="31.706" style="stroke: #CBD5E1; stroke-width: 1.0;" width="10" x="432.5" y="989.0582"/><rect fill="#F8FAFC" height="31.706" style="stroke: #CBD5E1; stroke-width: 1.0;" width="10" x="558.5" y="731.7041"/><rect fill="#F8FAFC" height="31.706" style="stroke: #CBD5E1; stroke-width: 1.0;" width="10" x="558.5" y="925.6462"/><rect fill="#F8FAFC" height="285.3541" style="stroke: #CBD5E1; stroke-width: 1.0;" width="10" x="763.5" y="893.9402"/><rect fill="#F8FAFC" height="31.706" style="stroke: #CBD5E1; stroke-width: 1.0;" width="10" x="974.5" y="1052.4703"/><rect fill="#F8FAFC" height="31.706" style="stroke: #CBD5E1; stroke-width: 1.0;" width="10" x="974.5" y="1274.4124"/><rect fill="#F8FAFC" height="31.706" style="stroke: #CBD5E1; stroke-width: 1.0;" width="10" x="1089.5" y="238.4078"/><rect fill="#F8FAFC" height="31.706" style="stroke: #CBD5E1; stroke-width: 1.0;" width="10" x="1089.5" y="573.174"/><rect fill="#F8FAFC" height="31.706" style="stroke: #CBD5E1; stroke-width: 1.0;" width="10" x="1089.5" y="1115.8823"/><polygon fill="#A80036" points="214.5,170.9958,224.5,174.9958,214.5,178.9958,218.5,174.9958" style="stroke: #A80036; stroke-width: 1.0;"/><line style="stroke: #A80036; stroke-width: 1.0;" x1="30.5" x2="220.5" y1="174.9958" y2="174.9958"/><text fill="#000000" font-family="Arial" font-size="13" lengthAdjust="spacingAndGlyphs" textLength="91" x="37.5" y="151.4808">POST /v1/users</text><text fill="#000000" font-family="Arial" font-size="13" lengthAdjust="spacingAndGlyphs" textLength="137" x="37.5" y="169.1868">profil + consentements</text><polygon fill="#A80036" points="420.5,202.7018,430.5,206.7018,420.5,210.7018,424.5,206.7018" style="stroke: #A80036; stroke-width: 1.0;"/><line style="stroke: #A80036; stroke-width: 1.0;" x1="236.5" x2="426.5" y1="206.7018" y2="206.7018"/><text fill="#000000" font-family="Arial" font-size="13" lengthAdjust="spacingAndGlyphs" textLength="91" x="243.5" y="200.8928">POST /v1/users</text><polygon fill="#A80036" points="1077.5,234.4078,1087.5,238.4078,1077.5,242.4078,1081.5,238.4078" style="stroke: #A80036; stroke-width: 1.0;"/><line style="stroke: #A80036; stroke-width: 1.0;" x1="442.5" x2="1083.5" y1="238.4078" y2="238.4078"/><text fill="#000000" font-family="Arial" font-size="13" lengthAdjust="spacingAndGlyphs" textLength="116" x="449.5" y="232.5988">trace creation profil</text><polygon fill="#A80036" points="453.5,266.1138,443.5,270.1138,453.5,274.1138,449.5,270.1138" style="stroke: #A80036; stroke-width: 1.0;"/><line style="stroke: #A80036; stroke-width: 1.0; stroke-dasharray: 2.0,2.0;" x1="447.5" x2="1093.5" y1="270.1138" y2="270.1138"/><text fill="#000000" font-family="Arial" font-size="13" lengthAdjust="spacingAndGlyphs" textLength="78" x="459.5" y="264.3048">202 accepted</text><polygon fill="#A80036" points="247.5,297.8199,237.5,301.8199,247.5,305.8199,243.5,301.8199" style="stroke: #A80036; stroke-width: 1.0;"/><line style="stroke: #A80036; stroke-width: 1.0; stroke-dasharray: 2.0,2.0;" x1="241.5" x2="436.5" y1="301.8199" y2="301.8199"/><text fill="#000000" font-family="Arial" font-size="13" lengthAdjust="spacingAndGlyphs" textLength="83" x="253.5" y="296.0109">201 profil cree</text><polygon fill="#A80036" points="41.5,329.5259,31.5,333.5259,41.5,337.5259,37.5,333.5259" style="stroke: #A80036; stroke-width: 1.0;"/><line style="stroke: #A80036; stroke-width: 1.0; stroke-dasharray: 2.0,2.0;" x1="35.5" x2="230.5" y1="333.5259" y2="333.5259"/><text fill="#000000" font-family="Arial" font-size="13" lengthAdjust="spacingAndGlyphs" textLength="71" x="47.5" y="327.7169">201 Created</text><polygon fill="#A80036" points="214.5,361.2319,224.5,365.2319,214.5,369.2319,218.5,365.2319" style="stroke: #A80036; stroke-width: 1.0;"/><line style="stroke: #A80036; stroke-width: 1.0;" x1="30.5" x2="220.5" y1="365.2319" y2="365.2319"/><text fill="#000000" font-family="Arial" font-size="13" lengthAdjust="spacingAndGlyphs" textLength="177" x="37.5" y="359.4229">POST /v1/auth/mfa/challenge</text><polygon fill="#A80036" points="420.5,392.9379,430.5,396.9379,420.5,400.9379,424.5,396.9379" style="stroke: #A80036; stroke-width: 1.0;"/><line style="stroke: #A80036; stroke-width: 1.0;" x1="236.5" x2="426.5" y1="396.9379" y2="396.9379"/><text fill="#000000" font-family="Arial" font-size="13" lengthAdjust="spacingAndGlyphs" textLength="177" x="243.5" y="391.1289">POST /v1/auth/mfa/challenge</text><polygon fill="#A80036" points="247.5,424.6439,237.5,428.6439,247.5,432.6439,243.5,428.6439" style="stroke: #A80036; stroke-width: 1.0;"/><line style="stroke: #A80036; stroke-width: 1.0; stroke-dasharray: 2.0,2.0;" x1="241.5" x2="436.5" y1="428.6439" y2="428.6439"/><text fill="#000000" font-family="Arial" font-size="13" lengthAdjust="spacingAndGlyphs" textLength="109" x="253.5" y="422.8349">201 challenge cree</text><polygon fill="#A80036" points="41.5,456.3499,31.5,460.3499,41.5,464.3499,37.5,460.3499" style="stroke: #A80036; stroke-width: 1.0;"/><line style="stroke: #A80036; stroke-width: 1.0; stroke-dasharray: 2.0,2.0;" x1="35.5" x2="230.5" y1="460.3499" y2="460.3499"/><text fill="#000000" font-family="Arial" font-size="13" lengthAdjust="spacingAndGlyphs" textLength="109" x="47.5" y="454.5409">201 challenge cree</text><polygon fill="#A80036" points="214.5,505.762,224.5,509.762,214.5,513.762,218.5,509.762" style="stroke: #A80036; stroke-width: 1.0;"/><line style="stroke: #A80036; stroke-width: 1.0;" x1="30.5" x2="220.5" y1="509.762" y2="509.762"/><text fill="#000000" font-family="Arial" font-size="13" lengthAdjust="spacingAndGlyphs" textLength="153" x="37.5" y="486.247">POST /v1/auth/mfa/verify</text><text fill="#000000" font-family="Arial" font-size="13" lengthAdjust="spacingAndGlyphs" textLength="57" x="37.5" y="503.953">code OTP</text><polygon fill="#A80036" points="420.5,537.468,430.5,541.468,420.5,545.468,424.5,541.468" style="stroke: #A80036; stroke-width: 1.0;"/><line style="stroke: #A80036; stroke-width: 1.0;" x1="236.5" x2="426.5" y1="541.468" y2="541.468"/><text fill="#000000" font-family="Arial" font-size="13" lengthAdjust="spacingAndGlyphs" textLength="153" x="243.5" y="535.659">POST /v1/auth/mfa/verify</text><polygon fill="#A80036" points="1077.5,569.174,1087.5,573.174,1077.5,577.174,1081.5,573.174" style="stroke: #A80036; stroke-width: 1.0;"/><line style="stroke: #A80036; stroke-width: 1.0;" x1="442.5" x2="1083.5" y1="573.174" y2="573.174"/><text fill="#000000" font-family="Arial" font-size="13" lengthAdjust="spacingAndGlyphs" textLength="98" x="449.5" y="567.365">trace MFA valide</text><polygon fill="#A80036" points="453.5,600.88,443.5,604.88,453.5,608.88,449.5,604.88" style="stroke: #A80036; stroke-width: 1.0;"/><line style="stroke: #A80036; stroke-width: 1.0; stroke-dasharray: 2.0,2.0;" x1="447.5" x2="1093.5" y1="604.88" y2="604.88"/><text fill="#000000" font-family="Arial" font-size="13" lengthAdjust="spacingAndGlyphs" textLength="78" x="459.5" y="599.071">202 accepted</text><polygon fill="#A80036" points="247.5,632.586,237.5,636.586,247.5,640.586,243.5,636.586" style="stroke: #A80036; stroke-width: 1.0;"/><line style="stroke: #A80036; stroke-width: 1.0; stroke-dasharray: 2.0,2.0;" x1="241.5" x2="436.5" y1="636.586" y2="636.586"/><text fill="#000000" font-family="Arial" font-size="13" lengthAdjust="spacingAndGlyphs" textLength="108" x="253.5" y="630.777">200 token/session</text><polygon fill="#A80036" points="41.5,664.2921,31.5,668.2921,41.5,672.2921,37.5,668.2921" style="stroke: #A80036; stroke-width: 1.0;"/><line style="stroke: #A80036; stroke-width: 1.0; stroke-dasharray: 2.0,2.0;" x1="35.5" x2="230.5" y1="668.2921" y2="668.2921"/><text fill="#000000" font-family="Arial" font-size="13" lengthAdjust="spacingAndGlyphs" textLength="108" x="47.5" y="662.4831">200 token/session</text><polygon fill="#A80036" points="214.5,695.9981,224.5,699.9981,214.5,703.9981,218.5,699.9981" style="stroke: #A80036; stroke-width: 1.0;"/><line style="stroke: #A80036; stroke-width: 1.0;" x1="30.5" x2="220.5" y1="699.9981" y2="699.9981"/><text fill="#000000" font-family="Arial" font-size="13" lengthAdjust="spacingAndGlyphs" textLength="133" x="37.5" y="694.1891">GET /v1/catalog/offers</text><polygon fill="#A80036" points="546.5,727.7041,556.5,731.7041,546.5,735.7041,550.5,731.7041" style="stroke: #A80036; stroke-width: 1.0;"/><line style="stroke: #A80036; stroke-width: 1.0;" x1="236.5" x2="552.5" y1="731.7041" y2="731.7041"/><text fill="#000000" font-family="Arial" font-size="13" lengthAdjust="spacingAndGlyphs" textLength="133" x="243.5" y="725.8951">GET /v1/catalog/offers</text><polygon fill="#A80036" points="247.5,759.4101,237.5,763.4101,247.5,767.4101,243.5,763.4101" style="stroke: #A80036; stroke-width: 1.0;"/><line style="stroke: #A80036; stroke-width: 1.0; stroke-dasharray: 2.0,2.0;" x1="241.5" x2="562.5" y1="763.4101" y2="763.4101"/><text fill="#000000" font-family="Arial" font-size="13" lengthAdjust="spacingAndGlyphs" textLength="102" x="253.5" y="757.6011">200 offres actives</text><polygon fill="#A80036" points="41.5,791.1161,31.5,795.1161,41.5,799.1161,37.5,795.1161" style="stroke: #A80036; stroke-width: 1.0;"/><line style="stroke: #A80036; stroke-width: 1.0; stroke-dasharray: 2.0,2.0;" x1="35.5" x2="230.5" y1="795.1161" y2="795.1161"/><text fill="#000000" font-family="Arial" font-size="13" lengthAdjust="spacingAndGlyphs" textLength="102" x="47.5" y="789.3071">200 offres actives</text><polygon fill="#A80036" points="214.5,840.5282,224.5,844.5282,214.5,848.5282,218.5,844.5282" style="stroke: #A80036; stroke-width: 1.0;"/><line style="stroke: #A80036; stroke-width: 1.0;" x1="30.5" x2="220.5" y1="844.5282" y2="844.5282"/><text fill="#000000" font-family="Arial" font-size="13" lengthAdjust="spacingAndGlyphs" textLength="98" x="37.5" y="821.0131">POST /v1/orders</text><text fill="#000000" font-family="Arial" font-size="13" lengthAdjust="spacingAndGlyphs" textLength="120" x="37.5" y="838.7192">Idempotency-Key: K</text><polygon fill="#A80036" points="751.5,889.9402,761.5,893.9402,751.5,897.9402,755.5,893.9402" style="stroke: #A80036; stroke-width: 1.0;"/><line style="stroke: #A80036; stroke-width: 1.0;" x1="236.5" x2="757.5" y1="893.9402" y2="893.9402"/><text fill="#000000" font-family="Arial" font-size="13" lengthAdjust="spacingAndGlyphs" textLength="98" x="243.5" y="870.4252">POST /v1/orders</text><text fill="#000000" font-family="Arial" font-size="13" lengthAdjust="spacingAndGlyphs" textLength="120" x="243.5" y="888.1312">Idempotency-Key: K</text><polygon fill="#A80036" points="579.5,921.6462,569.5,925.6462,579.5,929.6462,575.5,925.6462" style="stroke: #A80036; stroke-width: 1.0;"/><line style="stroke: #A80036; stroke-width: 1.0;" x1="573.5" x2="762.5" y1="925.6462" y2="925.6462"/><text fill="#000000" font-family="Arial" font-size="13" lengthAdjust="spacingAndGlyphs" textLength="176" x="585.5" y="919.8372">verifier offre + prix versionnes</text><polygon fill="#A80036" points="751.5,953.3522,761.5,957.3522,751.5,961.3522,755.5,957.3522" style="stroke: #A80036; stroke-width: 1.0;"/><line style="stroke: #A80036; stroke-width: 1.0; stroke-dasharray: 2.0,2.0;" x1="563.5" x2="757.5" y1="957.3522" y2="957.3522"/><text fill="#000000" font-family="Arial" font-size="13" lengthAdjust="spacingAndGlyphs" textLength="94" x="570.5" y="951.5432">offre admissible</text><polygon fill="#A80036" points="453.5,985.0582,443.5,989.0582,453.5,993.0582,449.5,989.0582" style="stroke: #A80036; stroke-width: 1.0;"/><line style="stroke: #A80036; stroke-width: 1.0;" x1="447.5" x2="762.5" y1="989.0582" y2="989.0582"/><text fill="#000000" font-family="Arial" font-size="13" lengthAdjust="spacingAndGlyphs" textLength="121" x="459.5" y="983.2492">valider client / token</text><polygon fill="#A80036" points="751.5,1016.7643,761.5,1020.7643,751.5,1024.7643,755.5,1020.7643" style="stroke: #A80036; stroke-width: 1.0;"/><line style="stroke: #A80036; stroke-width: 1.0; stroke-dasharray: 2.0,2.0;" x1="437.5" x2="757.5" y1="1020.7643" y2="1020.7643"/><text fill="#000000" font-family="Arial" font-size="13" lengthAdjust="spacingAndGlyphs" textLength="70" x="444.5" y="1014.9553">client valide</text><polygon fill="#A80036" points="962.5,1048.4703,972.5,1052.4703,962.5,1056.4703,966.5,1052.4703" style="stroke: #A80036; stroke-width: 1.0;"/><line style="stroke: #A80036; stroke-width: 1.0;" x1="773.5" x2="968.5" y1="1052.4703" y2="1052.4703"/><text fill="#000000" font-family="Arial" font-size="13" lengthAdjust="spacingAndGlyphs" textLength="182" x="780.5" y="1046.6613">declarer commande facturable</text><polygon fill="#A80036" points="784.5,1080.1763,774.5,1084.1763,784.5,1088.1763,780.5,1084.1763" style="stroke: #A80036; stroke-width: 1.0;"/><line style="stroke: #A80036; stroke-width: 1.0; stroke-dasharray: 2.0,2.0;" x1="778.5" x2="978.5" y1="1084.1763" y2="1084.1763"/><text fill="#000000" font-family="Arial" font-size="13" lengthAdjust="spacingAndGlyphs" textLength="78" x="790.5" y="1078.3673">202 accepted</text><polygon fill="#A80036" points="1077.5,1111.8823,1087.5,1115.8823,1077.5,1119.8823,1081.5,1115.8823" style="stroke: #A80036; stroke-width: 1.0;"/><line style="stroke: #A80036; stroke-width: 1.0;" x1="773.5" x2="1083.5" y1="1115.8823" y2="1115.8823"/><text fill="#000000" font-family="Arial" font-size="13" lengthAdjust="spacingAndGlyphs" textLength="171" x="780.5" y="1110.0733">trace commande / activation</text><polygon fill="#A80036" points="784.5,1143.5883,774.5,1147.5883,784.5,1151.5883,780.5,1147.5883" style="stroke: #A80036; stroke-width: 1.0;"/><line style="stroke: #A80036; stroke-width: 1.0; stroke-dasharray: 2.0,2.0;" x1="778.5" x2="1093.5" y1="1147.5883" y2="1147.5883"/><text fill="#000000" font-family="Arial" font-size="13" lengthAdjust="spacingAndGlyphs" textLength="78" x="790.5" y="1141.7793">202 accepted</text><polygon fill="#A80036" points="247.5,1175.2943,237.5,1179.2943,247.5,1183.2943,243.5,1179.2943" style="stroke: #A80036; stroke-width: 1.0;"/><line style="stroke: #A80036; stroke-width: 1.0; stroke-dasharray: 2.0,2.0;" x1="241.5" x2="767.5" y1="1179.2943" y2="1179.2943"/><text fill="#000000" font-family="Arial" font-size="13" lengthAdjust="spacingAndGlyphs" textLength="155" x="253.5" y="1173.4853">201 commande confirmee</text><polygon fill="#A80036" points="41.5,1207.0004,31.5,1211.0004,41.5,1215.0004,37.5,1211.0004" style="stroke: #A80036; stroke-width: 1.0;"/><line style="stroke: #A80036; stroke-width: 1.0; stroke-dasharray: 2.0,2.0;" x1="35.5" x2="230.5" y1="1211.0004" y2="1211.0004"/><text fill="#000000" font-family="Arial" font-size="13" lengthAdjust="spacingAndGlyphs" textLength="155" x="47.5" y="1205.1914">201 commande confirmee</text><polygon fill="#A80036" points="214.5,1238.7064,224.5,1242.7064,214.5,1246.7064,218.5,1242.7064" style="stroke: #A80036; stroke-width: 1.0;"/><line style="stroke: #A80036; stroke-width: 1.0;" x1="30.5" x2="220.5" y1="1242.7064" y2="1242.7064"/><text fill="#000000" font-family="Arial" font-size="13" lengthAdjust="spacingAndGlyphs" textLength="127" x="37.5" y="1236.8974">GET /v1/billing/usage</text><polygon fill="#A80036" points="962.5,1270.4124,972.5,1274.4124,962.5,1278.4124,966.5,1274.4124" style="stroke: #A80036; stroke-width: 1.0;"/><line style="stroke: #A80036; stroke-width: 1.0;" x1="236.5" x2="968.5" y1="1274.4124" y2="1274.4124"/><text fill="#000000" font-family="Arial" font-size="13" lengthAdjust="spacingAndGlyphs" textLength="127" x="243.5" y="1268.6034">GET /v1/billing/usage</text><polygon fill="#A80036" points="247.5,1302.1184,237.5,1306.1184,247.5,1310.1184,243.5,1306.1184" style="stroke: #A80036; stroke-width: 1.0;"/><line style="stroke: #A80036; stroke-width: 1.0; stroke-dasharray: 2.0,2.0;" x1="241.5" x2="978.5" y1="1306.1184" y2="1306.1184"/><text fill="#000000" font-family="Arial" font-size="13" lengthAdjust="spacingAndGlyphs" textLength="115" x="253.5" y="1300.3094">200 usage + facture</text><polygon fill="#A80036" points="41.5,1333.8244,31.5,1337.8244,41.5,1341.8244,37.5,1337.8244" style="stroke: #A80036; stroke-width: 1.0;"/><line style="stroke: #A80036; stroke-width: 1.0; stroke-dasharray: 2.0,2.0;" x1="35.5" x2="230.5" y1="1337.8244" y2="1337.8244"/><text fill="#000000" font-family="Arial" font-size="13" lengthAdjust="spacingAndGlyphs" textLength="115" x="47.5" y="1332.0154">200 usage + facture</text><path d="M184,1350.8244 L184,1395.8244 L1141,1395.8244 L1141,1360.8244 L1131,1350.8244 L184,1350.8244 " fill="#FBFB77" style="stroke: #A80036; stroke-width: 1.0;"/><path d="M1131,1350.8244 L1131,1360.8244 L1141,1360.8244 L1131,1350.8244 " fill="#FBFB77" style="stroke: #A80036; stroke-width: 1.0;"/><text fill="#000000" font-family="Arial" font-size="13" lengthAdjust="spacingAndGlyphs" textLength="361" x="477.5" y="1369.7214">Le gateway conserve methode, chemin, corps, query params</text><text fill="#000000" font-family="Arial" font-size="13" lengthAdjust="spacingAndGlyphs" textLength="286" x="477.5" y="1387.4275">et headers applicatifs comme Idempotency-Key.</text><!--MD5=[2b39b0ca3ae59119f6c9c58ac762b337]
@startuml runtime-e2e-6-1
title Scenario 6.1 - Parcours E2E CanTelcoX (cas nominal)

skinparam shadowing false
skinparam backgroundColor #FFFFFF
skinparam defaultFontName Arial
skinparam sequence {
  ArrowColor #A80036
  LifeLineBorderColor #CBD5E1
  LifeLineBackgroundColor #F8FAFC
  ParticipantBorderColor #1E3A5F
  ParticipantBackgroundColor #DBEAFE
  ActorBorderColor #2F3A4A
  ActorBackgroundColor #F8FAFC
}

actor Client
participant "API Gateway\nFastAPI" as Gateway
participant "identity-service" as Identity
participant "catalog-service" as Catalog
participant "order-service" as Orders
participant "billing-service" as Billing
participant "audit-service" as Audit

Client -> Gateway : POST /v1/users\nprofil + consentements
activate Gateway
Gateway -> Identity : POST /v1/users
activate Identity
Identity -> Audit : trace creation profil
activate Audit
Audit - -> Identity : 202 accepted
deactivate Audit
Identity - -> Gateway : 201 profil cree
deactivate Identity
Gateway - -> Client : 201 Created
deactivate Gateway

Client -> Gateway : POST /v1/auth/mfa/challenge
activate Gateway
Gateway -> Identity : POST /v1/auth/mfa/challenge
activate Identity
Identity - -> Gateway : 201 challenge cree
deactivate Identity
Gateway - -> Client : 201 challenge cree
deactivate Gateway

Client -> Gateway : POST /v1/auth/mfa/verify\ncode OTP
activate Gateway
Gateway -> Identity : POST /v1/auth/mfa/verify
activate Identity
Identity -> Audit : trace MFA valide
activate Audit
Audit - -> Identity : 202 accepted
deactivate Audit
Identity - -> Gateway : 200 token/session
deactivate Identity
Gateway - -> Client : 200 token/session
deactivate Gateway

Client -> Gateway : GET /v1/catalog/offers
activate Gateway
Gateway -> Catalog : GET /v1/catalog/offers
activate Catalog
Catalog - -> Gateway : 200 offres actives
deactivate Catalog
Gateway - -> Client : 200 offres actives
deactivate Gateway

Client -> Gateway : POST /v1/orders\nIdempotency-Key: K
activate Gateway
Gateway -> Orders : POST /v1/orders\nIdempotency-Key: K
activate Orders
Orders -> Catalog : verifier offre + prix versionnes
activate Catalog
Catalog - -> Orders : offre admissible
deactivate Catalog
Orders -> Identity : valider client / token
activate Identity
Identity - -> Orders : client valide
deactivate Identity
Orders -> Billing : declarer commande facturable
activate Billing
Billing - -> Orders : 202 accepted
deactivate Billing
Orders -> Audit : trace commande / activation
activate Audit
Audit - -> Orders : 202 accepted
deactivate Audit
Orders - -> Gateway : 201 commande confirmee
deactivate Orders
Gateway - -> Client : 201 commande confirmee
deactivate Gateway

Client -> Gateway : GET /v1/billing/usage
activate Gateway
Gateway -> Billing : GET /v1/billing/usage
activate Billing
Billing - -> Gateway : 200 usage + facture
deactivate Billing
Gateway - -> Client : 200 usage + facture
deactivate Gateway

note over Gateway,Audit
Le gateway conserve methode, chemin, corps, query params
et headers applicatifs comme Idempotency-Key.
end note
@enduml

PlantUML version 1.2020.02(Sun Mar 01 05:22:07 EST 2020)
(GPL source distribution)
Java Runtime: OpenJDK Runtime Environment
JVM: OpenJDK 64-Bit Server VM
Java Version: 21.0.11+10-1-24.04.2-Ubuntu
Operating System: Linux
Default Encoding: UTF-8
Language: en
Country: null
--></g></svg>